<?xml version="1.0" encoding="UTF-8"?>
<svg id="Layer_2" data-name="Layer 2" xmlns="http://www.w3.org/2000/svg" viewBox="0 0 1203.26 1080">
  <defs>
    <style>
      .cls-1 {
        fill: #f9bd43;
      }
    </style>
  </defs>
  <g id="Layer_2-2" data-name="Layer 2">
    <g id="Layer_2-2" data-name="Layer 2-2">
      <path class="cls-1" d="M821.19,691.87c-24.94,15.82-49.28,31.03-73.31,46.54-90.04,56.89-180.09,114.07-269.82,171.26-6.69,4.26-10.34,3.65-15.51-2.13-31.33-34.98-62.36-70.57-95.52-104.34-21.29-21.6-45.93-40.46-69.36-59.93-27.38-22.51-55.36-44.72-83.05-67.23-2.74-2.43-4.87-5.78-7.3-8.52-3.65-3.95-6.69-8.82-10.95-12.17-28.29-22.81-57.19-45.33-85.78-67.53-5.17-3.95-6.39-6.69-2.43-12.47,7.6-10.65,14.3-21.9,21.29-33.16,2.43-3.95,5.17-5.17,10.04-4.56,34.07,3.65,68.14,6.69,102.21,10.04,3.95,.3,8.21-.61,11.86-2.13,37.11-13.69,73.92-27.07,111.03-41.07,5.78-2.13,10.34-1.83,15.51,1.22,19.47,10.34,39.55,20.08,59.01,30.42,6.39,3.35,10.04,2.43,14.6-3.04,11.56-14.91,24.34-28.9,35.59-44.11,3.95-5.48,5.17-12.78,7-19.47,2.13-8.52,3.95-17.04,4.87-25.86,.91-8.21,5.17-7.91,11.26-6.69,39.85,7.3,79.4,15.82,119.85,21.29,21.29,2.74,33.77,13.08,45.63,30.12,45.93,66.62,93.69,132.63,140.54,198.64,.3,.61,1.22,2.13,2.74,4.87h0Z"/>
      <path class="cls-1" d="M829.4,686.09c-2.13-2.74-3.95-4.87-5.78-7.3-47.46-66.92-95.21-134.15-142.67-201.38-4.56-6.39-11.56-13.08-11.86-19.77-.3-6.39,7-13.08,10.95-19.47,17.34-27.99,35.29-55.36,51.41-83.96,5.48-9.73,6.69-22.21,8.52-33.77,7-42.59,13.69-85.18,20.69-129.89,2.74,2.43,4.87,3.95,6.69,5.78,59.93,57.49,120.16,114.99,179.78,172.79,9.43,9.13,19.47,13.08,31.64,14.6,10.95,1.22,21.6,3.65,32.55,4.87,5.17,.61,7,2.74,7,7.91-.3,42.28-.61,84.87-1.22,127.46,0,10.04-1.22,20.38-.3,30.42,.91,11.26-4.26,17.64-13.38,23.12-30.72,18.86-61.14,38.33-91.87,57.8-24.64,15.51-49.58,31.33-74.22,46.85-2.74,.91-5.17,2.13-7.91,3.95h0Z"/>
      <path class="cls-1" d="M708.03,141.88c17.34-6.69,33.16-12.78,49.28-18.56,34.68-13.08,69.36-26.77,104.95-38.94,10.95-3.95,23.42-4.56,35.29-5.17,45.93-2.43,92.17-4.26,138.11-6.69,6.69-.3,13.38-2.74,19.47-5.78,40.15-20.69,80-41.98,120.16-62.97,14.91-7.91,23.12-3.35,25.25,13.38,.91,8.21,2.74,16.12,2.74,24.34,0,4.56-1.83,10.04-4.56,13.08-26.77,29.51-53.54,58.41-80.92,87.31-2.74,3.04-7,5.48-10.95,6.39-18.56,3.95-37.11,7-55.67,10.65-18.86,3.65-30.12,17.04-30.12,36.2-.61,57.19-1.22,114.68-1.83,171.87,0,12.78,0,12.47-12.17,10.65s-24.34-3.35-36.5-5.78c-4.87-.91-9.73-3.65-13.38-7-50.5-48.06-101.3-96.74-151.19-145.41-27.68-27.07-55.67-53.23-89.74-72.1-3.04-1.22-5.17-3.04-8.21-5.48h0Z"/>
      <path class="cls-1" d="M570.22,143.4c9.73,7.3,18.25,13.99,26.77,20.69,11.56,9.13,24.03,10.95,37.72,5.48,18.25-7,36.81-14.3,55.36-20.69,3.35-1.22,8.21-.91,11.26,.91,15.51,9.73,31.03,19.77,45.93,30.12,2.13,1.52,4.26,5.48,3.65,7.91-7.91,51.11-15.82,102.52-24.03,153.32-.61,3.35-2.43,6.69-4.26,9.73-19.77,32.25-39.85,64.19-59.62,96.74-3.04,5.17-6.08,6.39-11.86,5.17-47.46-8.82-94.91-17.04-142.37-25.86-8.82-1.83-17.64-5.78-26.16-9.43-2.43-.91-4.26-4.26-5.48-6.69-8.21-16.73-16.12-33.46-23.73-50.5-1.22-3.04-1.83-7-1.22-10.04,4.87-31.64,10.34-62.97,15.21-94.91,.91-6.69,3.95-10.65,9.43-13.99,19.47-11.26,38.33-23.12,57.8-34.37,6.39-3.65,10.34-8.21,13.08-14.91,7.6-16.43,14.91-31.94,22.51-48.67h0Z"/>
      <path class="cls-1" d="M199.1,219.14c3.95-18.86,7.6-36.81,11.56-54.45,2.13-10.04,4.26-20.38,6.69-30.42,3.35-13.99,11.86-17.64,24.03-10.65,21.29,11.86,42.59,23.42,63.58,35.9,12.78,7.6,24.94,7.6,38.33,2.13,49.58-20.69,99.47-40.76,148.75-61.75,10.65-4.56,18.56-3.95,27.68,3.65,12.17,10.65,25.25,20.08,38.33,29.81,4.26,3.35,4.87,6.08,2.43,10.95-6.69,13.99-12.47,28.59-19.47,42.59-2.43,5.17-6.69,10.04-11.56,13.08-20.08,12.78-40.76,24.64-61.14,36.81-4.56,2.74-7,5.78-7.91,11.56-5.48,34.68-11.56,69.05-17.04,103.73-.61,3.65,.61,8.21,2.43,11.56,7.3,16.43,15.21,32.55,23.42,50.19-18.56-3.04-35.9-5.78-52.93-8.82-34.68-5.78-69.66-11.86-104.64-17.34-7-1.22-11.86-3.65-16.12-9.43-15.82-20.69-32.25-40.76-48.67-60.84-6.39-7.6-10.04-15.82-10.34-25.86-.61-19.16-2.43-38.33-3.04-57.19-.3-6.08-2.43-8.82-8.52-9.73-8.21-1.83-16.12-3.65-25.86-5.48h0Z"/>
      <path class="cls-1" d="M459.8,919.11c-17.04,10.65-33.77,21.29-50.19,31.64-23.73,14.91-47.46,29.51-70.88,44.72-5.78,3.95-9.13,3.35-13.08-2.43-11.56-16.12-23.42-31.64-35.59-47.15-2.43-3.35-6.69-6.39-10.65-7.91-37.11-13.99-73.62-27.38-110.42-40.76-4.56-1.83-10.04-1.52-15.21-1.22-25.55,1.22-51.41,3.04-76.96,4.26-3.04,.3-7.6-.91-9.13-3.04-13.08-18.56-25.55-37.42-38.94-56.89,34.07-25.86,66.62-50.8,99.47-76.05,23.12-17.64,46.54-34.68,68.75-53.23,7-5.78,11.26-14.91,17.04-23.42,.91,.61,3.35,2.13,5.48,3.95,41.37,33.46,82.74,66.32,123.2,100.08,13.38,11.26,24.64,24.94,36.5,37.72,25.86,28.29,51.71,56.58,77.57,84.87,1.52,1.52,2.43,3.04,3.04,4.87Z"/>
      <path class="cls-1" d="M131.57,350.86c7.91,3.35,15.21,5.78,21.9,9.13,1.83,.91,3.35,4.87,3.35,7.3,.3,11.26,.61,22.51,0,33.77-.3,7.3,2.13,10.95,9.43,12.47,29.51,7.3,58.71,14.91,88.22,22.81,6.39,1.83,10.34,0,14.3-4.87,9.13-11.26,18.86-22.21,28.59-32.85,2.13-2.13,6.69-3.95,9.73-3.35,53.84,8.82,108.29,17.95,162.14,27.07,1.22,.3,2.13,.3,3.35,.3,19.47,3.95,21.9,7.6,18.25,26.77-.61,3.35-1.22,6.39-1.83,9.73-1.52,13.08-5.78,24.64-15.21,34.37-8.21,8.82-15.51,18.25-22.81,27.99-3.95,5.17-7.3,5.78-13.08,2.74-19.16-10.04-38.63-19.47-57.49-29.81-5.48-2.74-10.04-2.74-15.51-.91-37.42,13.99-74.83,27.99-112.55,41.68-4.26,1.52-9.13,2.13-13.38,1.52-31.33-2.74-62.67-6.08-94.3-8.82-7.3-.61-11.26-2.43-12.17-10.95-2.13-17.64-7-34.98-8.52-52.63-1.22-13.69,.3-27.68,1.22-41.68,1.52-20.99,3.35-41.98,5.17-62.97-.3-2.43,.61-5.17,1.22-8.82h0Z"/>
      <path class="cls-1" d="M325.04,1005.8c-20.69,13.08-40.15,25.55-59.62,38.02-17.04,10.95-34.37,21.29-51.11,32.55-7,4.56-13.38,4.87-20.38,.61-15.51-9.73-31.64-18.56-46.85-28.59-3.35-2.13-6.08-7-6.69-10.95-2.13-15.21-2.74-30.42-4.87-45.63-1.22-8.21,.61-14.3,7.6-18.86,2.43-1.52,3.95-3.95,6.39-5.17,18.56-10.34,23.42-26.16,20.38-45.93-.61-4.26,0-8.52,0-14.3,3.35,.91,6.08,1.52,8.21,2.43,31.33,11.56,62.36,23.12,94.3,34.37,7,2.43,12.17,6.39,16.73,12.47,10.95,15.82,22.81,31.64,35.9,48.98h0Z"/>
      <path class="cls-1" d="M293.71,388.89c-10.65,12.47-20.69,24.34-31.33,35.9-1.52,1.52-5.48,2.43-7.91,1.83-27.68-7-55.06-14.3-82.44-20.99-4.56-1.22-6.08-3.35-6.08-7.91,.3-11.56,0-22.81,0-34.37,0-5.48-1.52-9.13-6.69-10.34-23.12-5.48-37.42-20.69-47.15-41.37-2.74-5.48-6.39-10.65-10.04-16.73,12.78-8.52,25.25-16.73,38.02-24.94,14.6-9.73,29.2-19.16,43.8-28.9,1.52-.91,3.65-1.83,4.56-3.35,9.43-14.91,21.9-4.87,32.85-3.95,1.22,0,3.04,4.26,3.35,6.39,1.52,20.99,2.43,41.98,4.26,62.97,.3,4.26,2.43,8.82,5.17,12.47,19.16,23.73,38.94,48.06,59.62,73.31Z"/>
      <path class="cls-1" d="M130.35,1038.96c-15.82-9.43-30.42-17.64-44.41-26.47-11.56-7.3-23.12-13.69-38.94-9.73,5.78-14.6,11.86-27.38,15.82-41.07,4.26-14.91,6.39-30.42,8.82-45.63,.61-4.26,2.43-6.08,6.69-6.08,25.55-1.52,51.41-3.04,76.96-4.56,.91,0,2.13,0,4.56,.3,0,13.38,.3,26.47-.3,39.55,0,1.83-3.04,3.65-4.56,5.48-8.52,7.3-17.34,14.3-25.55,21.9-2.43,2.43-4.56,7-4.26,10.34,1.22,17.95,3.04,35.9,5.17,55.97h0Z"/>
      <path class="cls-1" d="M94.15,299.15c9.13,14.91,17.95,28.9,26.16,42.89,1.83,3.04,1.83,7.3,1.52,10.95-2.43,31.33-5.17,62.67-7.91,94.3-.3,4.56-1.52,7-6.69,7-14.91-.3-30.12-.3-45.02-.3-4.26,0-6.39-1.52-6.39-6.39,0-38.33,0-76.66,.3-114.99,0-3.95,2.43-8.82,5.48-11.26,9.73-7.91,20.69-14.6,32.55-22.21h0Z"/>
      <path class="cls-1" d="M22.06,846.4c13.69,20.08,26.77,38.63,39.24,57.8,1.83,2.74,1.22,7.3,.91,10.95-1.52,31.64-13.99,59.93-25.86,88.22-2.43,6.08-13.08,10.65-20.38,8.82-7.6-1.83-10.04-7.91-10.34-14.91-1.22-25.25-2.13-50.19-3.35-75.44-.61-14.91-.61-29.51-2.13-44.11-.91-10.95,2.13-19.16,11.86-24.64,3.65-1.52,6.39-3.95,10.04-6.69h0Z"/>
      <path class="cls-1" d="M96.28,576.58c-12.17-9.73-23.73-17.95-34.37-27.38-3.35-2.74-5.78-8.21-6.08-12.47-.61-22.21-.3-44.11-.3-66.32,0-5.48,2.13-7.3,7.3-7,14.91,.3,29.51,.61,44.11,.3,5.48,0,7.3,2.43,7.91,7,3.35,18.86,6.69,37.72,9.73,56.58,.3,1.83,0,4.56-.91,6.08-8.82,13.99-17.95,28.29-27.38,43.2h0Z"/>
    </g>
  </g>
</svg>