<?xml version="1.0" encoding="UTF-8"?>
<svg id="Layer_2" data-name="Layer 2" xmlns="http://www.w3.org/2000/svg" viewBox="0 0 396.55 356.03">
  <defs>
    <style>
      .cls-1 {
        fill: none;
        stroke: #fc0;
        stroke-linecap: round;
        stroke-linejoin: round;
      }

      .cls-2 {
        fill: #f9bd43;
      }
    </style>
  </defs>
  <g id="Layer_2-2" data-name="Layer 2">
    <path class="cls-1" d="M270.45,227.94c-8.2,5.2-16.2,10.2-24.1,15.3-29.6,18.7-59.2,37.5-88.7,56.3-2.2,1.4-3.4,1.2-5.1-.7-10.3-11.5-20.5-23.2-31.4-34.3-7-7.1-15.1-13.3-22.8-19.7-9-7.4-18.2-14.7-27.3-22.1-.9-.8-1.6-1.9-2.4-2.8-1.2-1.3-2.2-2.9-3.6-4-9.3-7.5-18.8-14.9-28.2-22.2-1.7-1.3-2.1-2.2-.8-4.1,2.5-3.5,4.7-7.2,7-10.9,.8-1.3,1.7-1.7,3.3-1.5,11.2,1.2,22.4,2.2,33.6,3.3,1.3,.1,2.7-.2,3.9-.7,12.2-4.5,24.3-8.9,36.5-13.5,1.9-.7,3.4-.6,5.1,.4,6.4,3.4,13,6.6,19.4,10,2.1,1.1,3.3,.8,4.8-1,3.8-4.9,8-9.5,11.7-14.5,1.3-1.8,1.7-4.2,2.3-6.4,.7-2.8,1.3-5.6,1.6-8.5,.3-2.7,1.7-2.6,3.7-2.2,13.1,2.4,26.1,5.2,39.4,7,7,.9,11.1,4.3,15,9.9,15.1,21.9,30.8,43.6,46.2,65.3,.1,.2,.4,.7,.9,1.6h0Z"/>
    <path class="cls-1" d="M273.15,226.04c-.7-.9-1.3-1.6-1.9-2.4-15.6-22-31.3-44.1-46.9-66.2-1.5-2.1-3.8-4.3-3.9-6.5-.1-2.1,2.3-4.3,3.6-6.4,5.7-9.2,11.6-18.2,16.9-27.6,1.8-3.2,2.2-7.3,2.8-11.1,2.3-14,4.5-28,6.8-42.7,.9,.8,1.6,1.3,2.2,1.9,19.7,18.9,39.5,37.8,59.1,56.8,3.1,3,6.4,4.3,10.4,4.8,3.6,.4,7.1,1.2,10.7,1.6,1.7,.2,2.3,.9,2.3,2.6-.1,13.9-.2,27.9-.4,41.9,0,3.3-.4,6.7-.1,10,.3,3.7-1.4,5.8-4.4,7.6-10.1,6.2-20.1,12.6-30.2,19-8.1,5.1-16.3,10.3-24.4,15.4-.9,.3-1.7,.7-2.6,1.3h0Z"/>
    <path class="cls-1" d="M233.25,47.14c5.7-2.2,10.9-4.2,16.2-6.1,11.4-4.3,22.8-8.8,34.5-12.8,3.6-1.3,7.7-1.5,11.6-1.7,15.1-.8,30.3-1.4,45.4-2.2,2.2-.1,4.4-.9,6.4-1.9,13.2-6.8,26.3-13.8,39.5-20.7,4.9-2.6,7.6-1.1,8.3,4.4,.3,2.7,.9,5.3,.9,8,0,1.5-.6,3.3-1.5,4.3-8.8,9.7-17.6,19.2-26.6,28.7-.9,1-2.3,1.8-3.6,2.1-6.1,1.3-12.2,2.3-18.3,3.5-6.2,1.2-9.9,5.6-9.9,11.9-.2,18.8-.4,37.7-.6,56.5,0,4.2,0,4.1-4,3.5s-8-1.1-12-1.9c-1.6-.3-3.2-1.2-4.4-2.3-16.6-15.8-33.3-31.8-49.7-47.8-9.1-8.9-18.3-17.5-29.5-23.7-1-.4-1.7-1-2.7-1.8h0Z"/>
    <path class="cls-1" d="M187.95,47.64c3.2,2.4,6,4.6,8.8,6.8,3.8,3,7.9,3.6,12.4,1.8,6-2.3,12.1-4.7,18.2-6.8,1.1-.4,2.7-.3,3.7,.3,5.1,3.2,10.2,6.5,15.1,9.9,.7,.5,1.4,1.8,1.2,2.6-2.6,16.8-5.2,33.7-7.9,50.4-.2,1.1-.8,2.2-1.4,3.2-6.5,10.6-13.1,21.1-19.6,31.8-1,1.7-2,2.1-3.9,1.7-15.6-2.9-31.2-5.6-46.8-8.5-2.9-.6-5.8-1.9-8.6-3.1-.8-.3-1.4-1.4-1.8-2.2-2.7-5.5-5.3-11-7.8-16.6-.4-1-.6-2.3-.4-3.3,1.6-10.4,3.4-20.7,5-31.2,.3-2.2,1.3-3.5,3.1-4.6,6.4-3.7,12.6-7.6,19-11.3,2.1-1.2,3.4-2.7,4.3-4.9,2.5-5.4,4.9-10.5,7.4-16h0Z"/>
    <path class="cls-1" d="M65.95,72.54c1.3-6.2,2.5-12.1,3.8-17.9,.7-3.3,1.4-6.7,2.2-10,1.1-4.6,3.9-5.8,7.9-3.5,7,3.9,14,7.7,20.9,11.8,4.2,2.5,8.2,2.5,12.6,.7,16.3-6.8,32.7-13.4,48.9-20.3,3.5-1.5,6.1-1.3,9.1,1.2,4,3.5,8.3,6.6,12.6,9.8,1.4,1.1,1.6,2,.8,3.6-2.2,4.6-4.1,9.4-6.4,14-.8,1.7-2.2,3.3-3.8,4.3-6.6,4.2-13.4,8.1-20.1,12.1-1.5,.9-2.3,1.9-2.6,3.8-1.8,11.4-3.8,22.7-5.6,34.1-.2,1.2,.2,2.7,.8,3.8,2.4,5.4,5,10.7,7.7,16.5-6.1-1-11.8-1.9-17.4-2.9-11.4-1.9-22.9-3.9-34.4-5.7-2.3-.4-3.9-1.2-5.3-3.1-5.2-6.8-10.6-13.4-16-20-2.1-2.5-3.3-5.2-3.4-8.5-.2-6.3-.8-12.6-1-18.8-.1-2-.8-2.9-2.8-3.2-2.7-.6-5.3-1.2-8.5-1.8h0Z"/>
    <path class="cls-2" d="M150.65,301.04c-8.5-9.3-17-18.6-25.5-27.9-3.9-4.2-7.6-8.7-12-12.4-13.3-11.1-26.9-21.9-40.5-32.9-.7-.6-1.5-1.1-1.8-1.3-1.9,2.8-3.3,5.8-5.6,7.7-7.3,6.1-15,11.7-22.6,17.5-10.8,8.3-21.5,16.5-32.7,25,4.4,6.4,8.5,12.6,12.8,18.7,.5,.7,2,1.1,3,1,8.4-.4,16.9-1,25.3-1.4,1.7-.1,3.5-.2,5,.4,12.1,4.4,24.1,8.8,36.3,13.4,1.3,.5,2.7,1.5,3.5,2.6,4,5.1,7.9,10.2,11.7,15.5,1.3,1.9,2.4,2.1,4.3,.8,7.7-5,15.5-9.8,23.3-14.7,5.4-3.4,10.9-6.9,16.5-10.4-.2-.6-.5-1.1-1-1.6Zm-87.74-21.64c-.89,2.57-1.77,5.12-2.64,7.68-2.48-2.01-6.15-4.55-11.03-6.58-4.78-1.99-9.08-2.81-12.21-3.17,.59-2.34,1.17-4.69,1.76-6.92,4.33,.63,9.1,1.12,14.25,1.36,4.46,.21,8.64,.2,12.51,.05-.88,2.52-1.76,5.04-2.64,7.58Z"/>
    <path class="cls-1" d="M43.75,115.84c2.6,1.1,5,1.9,7.2,3,.6,.3,1.1,1.6,1.1,2.4,.1,3.7,.2,7.4,0,11.1-.1,2.4,.7,3.6,3.1,4.1,9.7,2.4,19.3,4.9,29,7.5,2.1,.6,3.4,0,4.7-1.6,3-3.7,6.2-7.3,9.4-10.8,.7-.7,2.2-1.3,3.2-1.1,17.7,2.9,35.6,5.9,53.3,8.9,.4,.1,.7,.1,1.1,.1,6.4,1.3,7.2,2.5,6,8.8-.2,1.1-.4,2.1-.6,3.2-.5,4.3-1.9,8.1-5,11.3-2.7,2.9-5.1,6-7.5,9.2-1.3,1.7-2.4,1.9-4.3,.9-6.3-3.3-12.7-6.4-18.9-9.8-1.8-.9-3.3-.9-5.1-.3-12.3,4.6-24.6,9.2-37,13.7-1.4,.5-3,.7-4.4,.5-10.3-.9-20.6-2-31-2.9-2.4-.2-3.7-.8-4-3.6-.7-5.8-2.3-11.5-2.8-17.3-.4-4.5,.1-9.1,.4-13.7,.5-6.9,1.1-13.8,1.7-20.7-.1-.8,.2-1.7,.4-2.9h0Z"/>
    <path class="cls-1" d="M107.35,331.14c-6.8,4.3-13.2,8.4-19.6,12.5-5.6,3.6-11.3,7-16.8,10.7-2.3,1.5-4.4,1.6-6.7,.2-5.1-3.2-10.4-6.1-15.4-9.4-1.1-.7-2-2.3-2.2-3.6-.7-5-.9-10-1.6-15-.4-2.7,.2-4.7,2.5-6.2,.8-.5,1.3-1.3,2.1-1.7,6.1-3.4,7.7-8.6,6.7-15.1-.2-1.4,0-2.8,0-4.7,1.1,.3,2,.5,2.7,.8,10.3,3.8,20.5,7.6,31,11.3,2.3,.8,4,2.1,5.5,4.1,3.6,5.2,7.5,10.4,11.8,16.1h0Z"/>
    <path class="cls-1" d="M97.05,128.34c-3.5,4.1-6.8,8-10.3,11.8-.5,.5-1.8,.8-2.6,.6-9.1-2.3-18.1-4.7-27.1-6.9-1.5-.4-2-1.1-2-2.6,.1-3.8,0-7.5,0-11.3,0-1.8-.5-3-2.2-3.4-7.6-1.8-12.3-6.8-15.5-13.6-.9-1.8-2.1-3.5-3.3-5.5,4.2-2.8,8.3-5.5,12.5-8.2,4.8-3.2,9.6-6.3,14.4-9.5,.5-.3,1.2-.6,1.5-1.1,3.1-4.9,7.2-1.6,10.8-1.3,.4,0,1,1.4,1.1,2.1,.5,6.9,.8,13.8,1.4,20.7,.1,1.4,.8,2.9,1.7,4.1,6.3,7.8,12.8,15.8,19.6,24.1Z"/>
    <path class="cls-1" d="M43.35,342.04c-5.2-3.1-10-5.8-14.6-8.7-3.8-2.4-7.6-4.5-12.8-3.2,1.9-4.8,3.9-9,5.2-13.5,1.4-4.9,2.1-10,2.9-15,.2-1.4,.8-2,2.2-2,8.4-.5,16.9-1,25.3-1.5,.3,0,.7,0,1.5,.1,0,4.4,.1,8.7-.1,13,0,.6-1,1.2-1.5,1.8-2.8,2.4-5.7,4.7-8.4,7.2-.8,.8-1.5,2.3-1.4,3.4,.4,5.9,1,11.8,1.7,18.4h0Z"/>
    <path class="cls-1" d="M31.45,98.84c3,4.9,5.9,9.5,8.6,14.1,.6,1,.6,2.4,.5,3.6-.8,10.3-1.7,20.6-2.6,31-.1,1.5-.5,2.3-2.2,2.3-4.9-.1-9.9-.1-14.8-.1-1.4,0-2.1-.5-2.1-2.1,0-12.6,0-25.2,.1-37.8,0-1.3,.8-2.9,1.8-3.7,3.2-2.6,6.8-4.8,10.7-7.3Z"/>
    <path class="cls-1" d="M7.75,278.74c4.5,6.6,8.8,12.7,12.9,19,.6,.9,.4,2.4,.3,3.6-.5,10.4-4.6,19.7-8.5,29-.8,2-4.3,3.5-6.7,2.9-2.5-.6-3.3-2.6-3.4-4.9-.4-8.3-.7-16.5-1.1-24.8-.2-4.9-.2-9.7-.7-14.5-.3-3.6,.7-6.3,3.9-8.1,1.2-.5,2.1-1.3,3.3-2.2h0Z"/>
    <path class="cls-1" d="M32.15,190.04c-4-3.2-7.8-5.9-11.3-9-1.1-.9-1.9-2.7-2-4.1-.2-7.3-.1-14.5-.1-21.8,0-1.8,.7-2.4,2.4-2.3,4.9,.1,9.7,.2,14.5,.1,1.8,0,2.4,.8,2.6,2.3,1.1,6.2,2.2,12.4,3.2,18.6,.1,.6,0,1.5-.3,2-2.9,4.6-5.9,9.3-9,14.2h0Z"/>
  </g>
</svg>