<?xml version="1.0" encoding="utf-8"?>
<!-- Generator: Adobe Illustrator 27.0.0, SVG Export Plug-In . SVG Version: 6.00 Build 0)  -->
<svg version="1.1" id="Layer_2_00000047748858534394852330000006643223935952796553_"
	 xmlns="http://www.w3.org/2000/svg" xmlns:xlink="http://www.w3.org/1999/xlink" x="0px" y="0px" viewBox="0 0 394.6 354.6"
	 style="enable-background:new 0 0 394.6 354.6;" xml:space="preserve">
<style type="text/css">
	.st0{fill-opacity:0;}
	.st1{fill:#9D6437;}
</style>
<g id="Layer_1-2">
	<g>
		<path class="st0" d="M269.4,227.2c-8.2,5.2-16.2,10.2-24.1,15.3c-29.6,18.7-59.1,37.4-88.6,56.2c-2.2,1.4-3.4,1.2-5.1-0.7
			c-10.3-11.5-20.5-23.2-31.3-34.2c-7-7.1-15.1-13.3-22.8-19.7c-9-7.4-18.2-14.7-27.3-22.1c-0.9-0.8-1.6-1.9-2.4-2.8
			c-1.2-1.3-2.2-2.9-3.6-4c-9.3-7.5-18.7-14.9-28.2-22.2c-1.7-1.3-2.1-2.2-0.8-4.1c2.5-3.5,4.7-7.2,7-10.9c0.8-1.3,1.7-1.7,3.3-1.5
			c11.2,1.2,22.4,2.2,33.5,3.3c1.3,0.1,2.7-0.2,3.9-0.7c12.2-4.5,24.3-8.9,36.4-13.5c1.9-0.7,3.4-0.6,5.1,0.4
			c6.4,3.4,13,6.6,19.4,10c2.1,1.1,3.3,0.8,4.8-1c3.8-4.9,8-9.5,11.7-14.5c1.3-1.8,1.7-4.2,2.3-6.4c0.7-2.8,1.3-5.6,1.6-8.5
			c0.3-2.7,1.7-2.6,3.7-2.2c13.1,2.4,26.1,5.2,39.3,7c7,0.9,11.1,4.3,15,9.9c15.1,21.9,30.7,43.5,46.1,65.2
			C268.6,225.8,268.9,226.3,269.4,227.2L269.4,227.2z"/>
		<path class="st0" d="M271.9,225.3c-0.7-0.9-1.3-1.6-1.9-2.4c-15.6-22-31.2-44-46.8-66.1c-1.5-2.1-3.8-4.3-3.9-6.5
			c-0.1-2.1,2.3-4.3,3.6-6.4c5.7-9.2,11.6-18.2,16.9-27.6c1.8-3.2,2.2-7.3,2.8-11.1c2.3-14,4.5-28,6.8-42.6c0.9,0.8,1.6,1.3,2.2,1.9
			c19.7,18.9,39.4,37.7,58.9,56.7c3.1,3,6.4,4.3,10.4,4.8c3.6,0.4,7.1,1.2,10.7,1.6c1.7,0.2,2.3,0.9,2.3,2.6
			c-0.1,13.9-0.2,27.9-0.4,41.8c0,3.3-0.4,6.7-0.1,10c0.3,3.7-1.4,5.8-4.4,7.6c-10.1,6.2-20.1,12.6-30.1,19
			c-8.1,5.1-16.3,10.3-24.4,15.4C273.7,224.3,272.9,224.7,271.9,225.3L271.9,225.3z"/>
		<path class="st0" d="M232.1,46.7c5.7-2.2,10.9-4.2,16.2-6.1c11.4-4.3,22.8-8.8,34.4-12.8c3.6-1.3,7.7-1.5,11.6-1.7
			c15.1-0.8,30.2-1.4,45.3-2.2c2.2-0.1,4.4-0.9,6.4-1.9c13.2-6.8,26.3-13.8,39.4-20.7c4.9-2.6,7.6-1.1,8.3,4.4
			c0.3,2.7,0.9,5.3,0.9,8c0,1.5-0.6,3.3-1.5,4.3c-8.8,9.7-17.6,19.2-26.6,28.7c-0.9,1-2.3,1.8-3.6,2.1c-6.1,1.3-12.2,2.3-18.3,3.5
			c-6.2,1.2-9.9,5.6-9.9,11.9c-0.2,18.8-0.4,37.6-0.6,56.4c0,4.2,0,4.1-4,3.5c-4-0.6-8-1.1-12-1.9c-1.6-0.3-3.2-1.2-4.4-2.3
			c-16.6-15.8-33.2-31.7-49.6-47.7c-9.1-8.9-18.3-17.5-29.5-23.7C233.8,48.1,233.1,47.5,232.1,46.7L232.1,46.7z"/>
		<path class="st1" d="M186.9,47.2c3.2,2.4,6,4.6,8.8,6.8c3.8,3,7.9,3.6,12.4,1.8c6-2.3,12.1-4.7,18.2-6.8c1.1-0.4,2.7-0.3,3.7,0.3
			c5.1,3.2,10.2,6.5,15.1,9.9c0.7,0.5,1.4,1.8,1.2,2.6c-2.6,16.8-5.2,33.6-7.9,50.3c-0.2,1.1-0.8,2.2-1.4,3.2
			c-6.5,10.6-13.1,21.1-19.6,31.7c-1,1.7-2,2.1-3.9,1.7c-15.6-2.9-31.1-5.6-46.7-8.5c-2.9-0.6-5.8-1.9-8.6-3.1
			c-0.8-0.3-1.4-1.4-1.8-2.2c-2.7-5.5-5.3-11-7.8-16.6c-0.4-1-0.6-2.3-0.4-3.3c1.6-10.4,3.4-20.7,5-31.1c0.3-2.2,1.3-3.5,3.1-4.6
			c6.4-3.7,12.6-7.6,19-11.3c2.1-1.2,3.4-2.7,4.3-4.9C182,57.8,184.4,52.7,186.9,47.2L186.9,47.2z"/>
		<path class="st0" d="M65.2,72.1c1.3-6.2,2.5-12.1,3.8-17.9c0.7-3.3,1.4-6.7,2.2-10c1.1-4.6,3.9-5.8,7.9-3.5
			c7,3.9,14,7.7,20.9,11.8c4.2,2.5,8.2,2.5,12.6,0.7c16.3-6.8,32.6-13.4,48.8-20.3c3.5-1.5,6.1-1.3,9.1,1.2c4,3.5,8.3,6.6,12.6,9.8
			c1.4,1.1,1.6,2,0.8,3.6c-2.2,4.6-4.1,9.4-6.4,14c-0.8,1.7-2.2,3.3-3.8,4.3c-6.6,4.2-13.4,8.1-20.1,12.1c-1.5,0.9-2.3,1.9-2.6,3.8
			c-1.8,11.4-3.8,22.7-5.6,34c-0.2,1.2,0.2,2.7,0.8,3.8c2.4,5.4,5,10.7,7.7,16.5c-6.1-1-11.8-1.9-17.4-2.9
			c-11.4-1.9-22.9-3.9-34.3-5.7c-2.3-0.4-3.9-1.2-5.3-3.1c-5.2-6.8-10.6-13.4-16-20c-2.1-2.5-3.3-5.2-3.4-8.5
			c-0.2-6.3-0.8-12.6-1-18.8c-0.1-2-0.8-2.9-2.8-3.2C70.9,73.3,68.3,72.7,65.2,72.1L65.2,72.1z"/>
		<path class="st0" d="M149.7,300.2c-8.5-9.3-17-18.6-25.5-27.9c-3.9-4.2-7.6-8.7-12-12.4c-13.3-11.1-26.9-21.9-40.5-32.8
			c-0.7-0.6-1.5-1.1-1.8-1.3c-1.9,2.8-3.3,5.8-5.6,7.7c-7.3,6.1-15,11.7-22.6,17.5c-10.8,8.3-21.5,16.5-32.6,25
			c4.4,6.4,8.5,12.6,12.8,18.7c0.5,0.7,2,1.1,3,1c8.4-0.4,16.9-1,25.3-1.4c1.7-0.1,3.5-0.2,5,0.4c12.1,4.4,24.1,8.8,36.2,13.4
			c1.3,0.5,2.7,1.5,3.5,2.6c4,5.1,7.9,10.2,11.7,15.5c1.3,1.9,2.4,2.1,4.3,0.8c7.7-5,15.5-9.8,23.3-14.7c5.4-3.4,10.9-6.9,16.5-10.4
			C150.5,301.2,150.1,300.7,149.7,300.2L149.7,300.2z M66.1,285.5c-6.6-2.8-13.2-5.5-19.8-8.3c0.5-2,1-4,1.5-5.9
			c7.6,0.4,15.2,0.8,22.8,1.2C69.1,276.8,67.6,281.1,66.1,285.5L66.1,285.5z"/>
		<path class="st0" d="M42.9,115.3c2.6,1.1,5,1.9,7.2,3c0.6,0.3,1.1,1.6,1.1,2.4c0.1,3.7,0.2,7.4,0,11.1c-0.1,2.4,0.7,3.6,3.1,4.1
			c9.7,2.4,19.3,4.9,28.9,7.5c2.1,0.6,3.4,0,4.7-1.6c3-3.7,6.2-7.3,9.4-10.8c0.7-0.7,2.2-1.3,3.2-1.1c17.7,2.9,35.5,5.9,53.2,8.9
			c0.4,0.1,0.7,0.1,1.1,0.1c6.4,1.3,7.2,2.5,6,8.8c-0.2,1.1-0.4,2.1-0.6,3.2c-0.5,4.3-1.9,8.1-5,11.3c-2.7,2.9-5.1,6-7.5,9.2
			c-1.3,1.7-2.4,1.9-4.3,0.9c-6.3-3.3-12.7-6.4-18.9-9.8c-1.8-0.9-3.3-0.9-5.1-0.3c-12.3,4.6-24.6,9.2-36.9,13.7
			c-1.4,0.5-3,0.7-4.4,0.5c-10.3-0.9-20.6-2-30.9-2.9c-2.4-0.2-3.7-0.8-4-3.6c-0.7-5.8-2.3-11.5-2.8-17.3c-0.4-4.5,0.1-9.1,0.4-13.7
			c0.5-6.9,1.1-13.8,1.7-20.7C42.5,117.4,42.7,116.5,42.9,115.3L42.9,115.3z"/>
		<path class="st0" d="M106.4,330.2c-6.8,4.3-13.2,8.4-19.6,12.5c-5.6,3.6-11.3,7-16.8,10.7c-2.3,1.5-4.4,1.6-6.7,0.2
			c-5.1-3.2-10.4-6.1-15.4-9.4c-1.1-0.7-2-2.3-2.2-3.6c-0.7-5-0.9-10-1.6-15c-0.4-2.7,0.2-4.7,2.5-6.2c0.8-0.5,1.3-1.3,2.1-1.7
			c6.1-3.4,7.7-8.6,6.7-15.1c-0.2-1.4,0-2.8,0-4.7c1.1,0.3,2,0.5,2.7,0.8c10.3,3.8,20.5,7.6,30.8,11.3c2.3,0.8,4,2.1,5.5,4.1
			C98.2,319.4,102.2,324.6,106.4,330.2L106.4,330.2z"/>
		<path class="st0" d="M96.1,127.8c-3.5,4.1-6.8,8-10.3,11.8c-0.5,0.5-1.8,0.8-2.6,0.6c-9.1-2.3-18.1-4.7-27.1-6.9
			c-1.5-0.4-2-1.1-2-2.6c0.1-3.8,0-7.5,0-11.3c0-1.8-0.5-3-2.2-3.4c-7.6-1.8-12.3-6.8-15.5-13.6c-0.9-1.8-2.1-3.5-3.3-5.5
			c4.2-2.8,8.3-5.5,12.5-8.2c4.8-3.2,9.6-6.3,14.4-9.5c0.5-0.3,1.2-0.6,1.5-1.1c3.1-4.9,7.2-1.6,10.8-1.3c0.4,0,1,1.4,1.1,2.1
			c0.5,6.9,0.8,13.8,1.4,20.7c0.1,1.4,0.8,2.9,1.7,4.1C82.9,111.5,89.4,119.5,96.1,127.8z"/>
		<path class="st0" d="M42.5,341.1c-5.2-3.1-10-5.8-14.6-8.7c-3.8-2.4-7.6-4.5-12.8-3.2c1.9-4.8,3.9-9,5.2-13.5
			c1.4-4.9,2.1-10,2.9-15c0.2-1.4,0.8-2,2.2-2c8.4-0.5,16.9-1,25.3-1.5c0.3,0,0.7,0,1.5,0.1c0,4.4,0.1,8.7-0.1,13
			c0,0.6-1,1.2-1.5,1.8c-2.8,2.4-5.7,4.7-8.4,7.2c-0.8,0.8-1.5,2.3-1.4,3.4C41.2,328.6,41.9,334.5,42.5,341.1L42.5,341.1z"/>
		<path class="st0" d="M30.6,98.3c3,4.9,5.9,9.5,8.6,14.1c0.6,1,0.6,2.4,0.5,3.6c-0.8,10.3-1.7,20.6-2.6,30.9
			c-0.1,1.5-0.5,2.3-2.2,2.3c-4.9-0.1-9.9-0.1-14.8-0.1c-1.4,0-2.1-0.5-2.1-2.1c0-12.6,0-25.2,0.1-37.7c0-1.3,0.8-2.9,1.8-3.7
			C23.2,103,26.8,100.8,30.6,98.3z"/>
		<path class="st0" d="M7.1,277.9c4.5,6.6,8.8,12.7,12.9,19c0.6,0.9,0.4,2.4,0.3,3.6c-0.5,10.4-4.6,19.7-8.4,29
			c-0.8,2-4.4,3.5-6.7,2.9c-2.5-0.6-3.3-2.6-3.4-4.9c-0.4-8.3-0.7-16.5-1.1-24.8c-0.2-4.9-0.2-9.7-0.7-14.5
			c-0.3-3.6,0.7-6.3,3.9-8.1C5,279.6,5.8,278.8,7.1,277.9L7.1,277.9z"/>
		<path class="st0" d="M31.3,189.4c-4-3.2-7.8-5.9-11.3-9c-1.1-0.9-1.9-2.7-2-4.1c-0.2-7.3-0.1-14.5-0.1-21.8c0-1.8,0.7-2.4,2.4-2.3
			c4.9,0.1,9.7,0.2,14.5,0.1c1.8,0,2.4,0.8,2.6,2.3c1.1,6.2,2.2,12.4,3.2,18.6c0.1,0.6,0,1.5-0.3,2
			C37.5,179.8,34.5,184.5,31.3,189.4L31.3,189.4z"/>
		<rect x="43.9" y="256.8" class="st0" width="36" height="29"/>
	</g>
</g>
</svg>
