<?xml version="1.0" encoding="utf-8"?>
<!-- Generator: Adobe Illustrator 27.0.0, SVG Export Plug-In . SVG Version: 6.00 Build 0)  -->
<svg version="1.1" id="Layer_2_00000145774666503862377650000015654099924886329535_"
	 xmlns="http://www.w3.org/2000/svg" xmlns:xlink="http://www.w3.org/1999/xlink" x="0px" y="0px" viewBox="0 0 814.7 705.8"
	 style="enable-background:new 0 0 814.7 705.8;" xml:space="preserve">
<style type="text/css">
	.st0{fill:#E5A63F;}
	.st1{fill:#A9432A;}
</style>
<g id="Layer_1-2">
	<g>
		<path class="st0" d="M344.4,549.1h0.4c0.2,0,2.4,2.3,6.6,6.8v0.6c0,0.3-2.2,2.6-6.6,6.8h-0.4c-0.3,0-2.7-2.4-7-7.2
			C341.6,551.5,344,549.1,344.4,549.1L344.4,549.1z"/>
		<path class="st0" d="M361.2,549.1h0.4c0.2,0,2.4,2.3,6.6,6.8v0.6c0,0.3-2.2,2.6-6.6,6.8h-0.4c-0.3,0-2.7-2.4-7-7.2
			C358.5,551.5,360.8,549.1,361.2,549.1L361.2,549.1z"/>
		<path class="st0" d="M378.1,549.1h0.4c0.2,0,2.4,2.3,6.6,6.8v0.6c0,0.3-2.2,2.6-6.6,6.8h-0.4c-0.3,0-2.7-2.4-7-7.2
			C375.3,551.5,377.6,549.1,378.1,549.1L378.1,549.1z"/>
		<path class="st0" d="M404.1,525.9c6.4,0,11,3.8,13.6,11.4c0.2,1,0.3,1.9,0.3,2.8v8.5c0,4-2.4,7.6-7.1,10.8c-1.6,0.9-4.1,1.6-7.7,2
			c-6.4,0-11-3.6-13.6-10.8c-0.2-1.3-0.3-2.3-0.3-3.1v-7.7c0-6.7,3.9-11.3,11.7-13.9H404.1L404.1,525.9z M398.6,512.7
			c3,0.5,4.5,2,4.5,4.5c-0.5,3.1-2,4.6-4.5,4.6c-3.1-0.5-4.6-2.1-4.6-4.6C394.5,514.2,396.1,512.7,398.6,512.7z M398.4,543v1.4
			c0,5.1,1.6,7.7,4.8,7.7h0.9c3.2,0,4.8-2.8,4.8-8.2V543c0-5.1-1.6-7.7-4.8-7.7h-0.9C400,535.3,398.4,537.8,398.4,543L398.4,543z
			 M410.8,512.7c3,0.5,4.5,2,4.5,4.5c-0.5,3.1-2,4.6-4.5,4.6c-3.1-0.5-4.6-2.1-4.6-4.6C406.7,514.2,408.3,512.7,410.8,512.7z"/>
		<path class="st0" d="M460.3,561.4h-36.1c-0.4,0-0.6-0.2-0.6-0.6v-7.7c0-0.4,0.2-0.6,0.6-0.6h21.9v-10.8c-0.2-3.6-1.6-5.4-4-5.4
			h-14.8c0-0.9,1.7-4,5.1-9.1H443c5.5,0,9.5,3.3,11.9,9.9c0.4,1.7,0.6,3,0.6,4c-0.2,5.8-0.3,9.6-0.3,11.4h5.1L460.3,561.4
			L460.3,561.4z"/>
		<path class="st0" d="M458.9,552.6h30.7v-7.4c-0.3-2.7-1.8-5.1-4.3-7.4c-1.8-1.1-3.6-1.7-5.4-1.7h-1.1c-2.8,0-5.4,1.3-7.7,4
			c-0.2,0-2.6-1.9-7.1-5.7v-0.3c4.3-4.9,9-7.4,14.2-7.4h1.4c9.1,0,15.3,5,18.8,15.1c0.4,2.8,0.6,4.9,0.6,6.3v12.8
			c0,0.4-0.2,0.6-0.6,0.6h-39.5V552.6L458.9,552.6z"/>
		<path class="st0" d="M504.6,561.5v-39c5.6-4.9,8.5-7.5,8.5-7.7c0.3,0,0.5,0.2,0.6,0.6v46.1L504.6,561.5L504.6,561.5z"/>
		<path class="st0" d="M533.3,527.2h1.4c6.1,0,10.4,3.7,13.1,11.1c0.2,1,0.3,1.9,0.3,2.8v15.3c0,7.3-4.1,12.9-12.2,16.8
			c-1.9,0.8-3.8,1.1-5.7,1.1h-3.1c-0.4,0-0.6-0.2-0.6-0.6V565h4c1.5,0,3.5-0.9,6-2.8v-0.6h-3.7c-6.1,0-10.4-3.7-13.1-11.1
			c-0.2-1-0.3-1.9-0.3-2.8v-6.5c0-6.4,3.6-11,10.8-13.6C531.5,527.3,532.5,527.2,533.3,527.2L533.3,527.2z M528.5,544.3
			c0,5.5,1.9,8.2,5.7,8.2h4.8v-8.2c0-5.1-1.6-7.7-4.8-7.7h-0.9C530.1,536.6,528.5,539.2,528.5,544.3L528.5,544.3z"/>
		<path class="st0" d="M607.8,561.4h-21.7c-6.1,0-10.4-3.7-13.1-11.1c-0.2-1-0.3-1.9-0.3-2.8v-7.7c0-6.7,3.9-11.3,11.7-13.9h3.1
			c1.3,0,3,0.3,5.1,0.9v-2c0-0.4,0.2-0.6,0.6-0.6h7.7c0.4,0,0.6,0.2,0.6,0.6v22.7c0,1.3-0.3,3-0.8,5.1h7.2L607.8,561.4L607.8,561.4z
			 M584.8,512.7c3,0.5,4.5,2,4.5,4.5c-0.5,3.1-2,4.6-4.5,4.6c-3.1-0.5-4.6-2.1-4.6-4.6C580.7,514.2,582.3,512.7,584.8,512.7z
			 M581.8,542.9v1.4c0,5.1,1.6,7.7,4.8,7.7h0.9c3.2,0,4.8-2.8,4.8-8.2V543c0-5.1-1.6-7.7-4.8-7.7h-0.9
			C583.4,535.3,581.8,537.8,581.8,542.9L581.8,542.9z M597.1,512.7c3,0.5,4.5,2,4.5,4.5c-0.5,3.1-2,4.6-4.5,4.6
			c-3.1-0.5-4.6-2.1-4.6-4.6C593,514.2,594.5,512.7,597.1,512.7z"/>
		<path class="st0" d="M666.5,561.4h-60.1v-8.8h7.2v-33.5c0.3-0.6,3.1-2.3,8.5-5.1c0.4,0,0.6,0.2,0.6,0.6V531h0.3
			c4.4-2.8,9.3-4.3,14.8-4.3c8.2,0,13.5,2.4,15.9,7.1c1.1,1.8,1.7,3.7,1.7,5.7v13.1h11.2v8.8H666.5z M622.9,551.5v1.1h23.3v-10.8
			c0-3.6-2-5.4-6-5.4c-0.7-0.2-1.9-0.3-3.7-0.3c-6.7,0-11.1,3.5-13.1,10.5C623.1,548.1,622.9,549.8,622.9,551.5L622.9,551.5z"/>
		<path class="st0" d="M665,552.7h3.4c3.6,0,5.4-2,5.4-6v-12.1c0-0.2,2.9-2.6,8.8-7.1l0.3,0.6v21.5c0,5.2-3,9.1-9.1,11.6
			c-0.3,0.2-0.8,0.3-1.4,0.3H665V552.7L665,552.7z M670.6,566.8c3,0.5,4.5,2,4.5,4.5c-0.5,3.1-2,4.6-4.5,4.6
			c-3.1-0.5-4.6-2.1-4.6-4.6C666.5,568.3,668.1,566.8,670.6,566.8z M680.9,566.8c3,0.5,4.5,2,4.5,4.5c-0.5,3.1-2,4.6-4.5,4.6
			c-3.1-0.5-4.6-2.1-4.6-4.6C676.8,568.3,678.3,566.8,680.9,566.8z"/>
		<path class="st0" d="M716.6,561.4h-7.5c-1.5,4.4-4.5,7.9-8.8,10.4c-3.1,1.3-5.8,2-8,2h-3.1c-0.4,0-0.6-0.2-0.6-0.6v-8.7h4
			c2.9,0,5.3-1.8,7.4-5.3c0.8-1,1.1-3.6,1.1-7.9v-17.1c0.8-0.9,3.7-3.3,8.8-7l0.3,0.6v25h6.4L716.6,561.4L716.6,561.4z"/>
		<path class="st0" d="M715.2,552.6h30.7v-7.4c-0.3-2.7-1.8-5.1-4.3-7.4c-1.8-1.1-3.6-1.7-5.4-1.7h-1.1c-2.8,0-5.4,1.3-7.7,4
			c-0.2,0-2.6-1.9-7.1-5.7v-0.3c4.3-4.9,9-7.4,14.2-7.4h1.4c9.1,0,15.3,5,18.8,15.1c0.4,2.8,0.6,4.9,0.6,6.3v12.8
			c0,0.4-0.2,0.6-0.6,0.6h-39.5L715.2,552.6L715.2,552.6z M738.3,512.7c3,0.5,4.5,2,4.5,4.5c-0.5,3.1-2,4.6-4.5,4.6
			c-3.1-0.5-4.6-2.1-4.6-4.6C734.2,514.2,735.7,512.7,738.3,512.7z"/>
	</g>
	<g>
		<path class="st0" d="M78.2,602.6h0.6c4.8,3.8,7.6,6.2,8.5,7.1v8c0,6.2,1.6,9.5,4.8,9.9c0,0.4,0.5,0.6,1.4,0.6h21.3
			c4.2-0.8,6.3-3.7,6.3-8.8V608c1.2-1.1,4.3-2.8,9.1-5.1v19.6c0,5.8-3.3,10.4-9.9,13.6c-0.9,0.6-2.1,0.8-3.7,0.8H91.8
			c-5.6,0-10-3.7-13.1-11.1c-0.4-1.3-0.6-2.5-0.6-3.4L78.2,602.6L78.2,602.6z M97.5,588.3c3,0.5,4.5,2,4.5,4.5
			c-0.5,3.1-2,4.6-4.5,4.6c-3.1-0.5-4.6-2.1-4.6-4.6C93.4,589.8,94.9,588.3,97.5,588.3z M109.7,588.3c3,0.5,4.5,2,4.5,4.5
			c-0.5,3.1-2,4.6-4.5,4.6c-3.1-0.5-4.6-2.1-4.6-4.6C105.6,589.8,107.1,588.3,109.7,588.3z"/>
		<path class="st0" d="M151.3,628.2v8.8h-5.8c-3.6,0-6.9-2.8-9.9-8.2c-0.4-1.7-0.6-2.9-0.6-3.7V591c0-0.4,0.2-0.6,0.6-0.6
			c0,0.2,2.9,2.8,8.5,7.7v23.3c0,4.5,1.3,6.8,4,6.8H151.3L151.3,628.2z"/>
		<path class="st0" d="M201.7,637h-51.9v-8.8h6.6v-10.8c1-6.6,4.3-9.9,9.9-9.9h6.3c0.8-1.8,2-2.9,3.6-3.4c1.9-0.8,3.5-1.1,4.8-1.1
			h3.7c6.1,0,10.2,3.3,12.5,9.9c0.2,0.7,0.3,1.5,0.3,2.3v13.1h4L201.7,637L201.7,637z M165.6,619.1v9.1h5.7v-11.4l-1.7-0.4l-1.7,0.1
			C166.3,616.6,165.6,617.4,165.6,619.1L165.6,619.1z M180.3,615.4v12.8h8.2v-10.8c-0.2-3.6-1.6-5.4-4-5.4c-2.7,0-4,0.4-4,1.1
			C180.4,613.9,180.3,614.6,180.3,615.4L180.3,615.4z"/>
		<path class="st0" d="M200.3,628.2H231v-7.4c-0.3-2.7-1.8-5.1-4.3-7.4c-1.8-1.1-3.6-1.7-5.4-1.7h-1.1c-2.8,0-5.4,1.3-7.7,4
			c-0.2,0-2.6-1.9-7.1-5.7v-0.3c4.3-4.9,9-7.4,14.2-7.4h1.4c9.1,0,15.3,5,18.8,15.1c0.4,2.8,0.6,4.9,0.6,6.3v12.8
			c0,0.4-0.2,0.6-0.6,0.6h-39.5L200.3,628.2L200.3,628.2z M222.4,642.4c3,0.5,4.5,2,4.5,4.5c-0.5,3.1-2,4.6-4.5,4.6
			c-3.1-0.5-4.6-2.1-4.6-4.6C218.3,643.9,219.8,642.4,222.4,642.4z"/>
		<path class="st0" d="M283.4,637h-9.8c-1.5,4.4-4.5,8-8.8,10.5c-3.1,1.3-5.8,2-8,2h-3.1c-0.4,0-0.6-0.2-0.6-0.6v-8.8h4
			c1.5,0,3.5-0.9,6-2.8v-0.6h-3.7c-6.1,0-10.4-3.7-13.1-11.1c-0.2-1-0.3-1.9-0.3-2.8v-6.5c0-6.4,3.6-11,10.8-13.6
			c1.3-0.2,2.3-0.3,3.1-0.3h1.4c6.1,0,10.4,3.7,13.1,11.1c0.2,1,0.3,1.9,0.3,2.8v11.9h8.7V637L283.4,637z M255.1,619.4
			c0,5.5,1.9,8.3,5.7,8.3h4.8v-8.3c0-5.1-1.6-7.7-4.8-7.7H260C256.7,611.7,255.1,614.3,255.1,619.4L255.1,619.4z"/>
		<path class="st0" d="M282,628.2h3.2c2.7,0,4-2.3,4-6.8v-23.3c5.6-4.9,8.5-7.5,8.5-7.7c0.3,0,0.5,0.2,0.6,0.6v34.1
			c0,0.8-0.2,2-0.6,3.7c-3,5.5-6.3,8.2-9.9,8.2H282V628.2L282,628.2z"/>
		<path class="st0" d="M303.9,637.1v-39c5.6-4.9,8.5-7.5,8.5-7.7c0.3,0,0.5,0.2,0.6,0.6v46.1L303.9,637.1L303.9,637.1z"/>
		<path class="st0" d="M382.8,601.5h1.4c6.1,0,10.4,3.7,13.1,11.1c0.2,1,0.3,1.9,0.3,2.8v7.7c0,6.3-3.4,10.8-10.2,13.3
			c-0.8,0.4-1.8,0.6-3.1,0.6h-33c-5.6,0-10-3.7-13.1-11.1c-0.4-1.3-0.6-2.5-0.6-3.4v-19.6l0.3-0.6c4.8,3.4,7.7,5.8,8.8,7.1v8.2
			c0,6.2,1.6,9.8,4.8,10.7c0-0.1,6.1-0.1,18.2-0.1v-0.3c-0.6-1.8-0.8-3.4-0.8-4.8v-7.7c0-6.4,3.6-11,10.8-13.6
			C380.9,601.6,382,601.5,382.8,601.5L382.8,601.5z M377.9,618.6v0.8c0,5.5,1.6,8.2,4.8,8.2h0.8c3.2,0,4.8-2.6,4.8-7.7v-1.4
			c0-5.1-1.6-7.7-4.8-7.7h-0.8C379.5,610.9,377.9,613.4,377.9,618.6L377.9,618.6z M382.8,588.3c3,0.5,4.5,2,4.5,4.5
			c-0.5,3.1-2,4.6-4.5,4.6c-3.1-0.5-4.6-2.1-4.6-4.6C378.7,589.8,380.3,588.3,382.8,588.3z"/>
		<path class="st0" d="M439.3,590.4v34.7c0,5.3-3,9.1-9.1,11.7c-0.3,0.2-0.8,0.3-1.4,0.3h-25c-0.4,0-0.6-0.2-0.6-0.6v-7.7
			c0-0.4,0.2-0.6,0.6-0.6h9.9l-4-24.4l0.6-0.3h8.5c0.5,0,1.9,8.2,4.3,24.7h3.1c2.7,0,4-2.3,4-6.8v-25
			C435.7,592.4,438.7,590.4,439.3,590.4L439.3,590.4z"/>
		<path class="st0" d="M467,580.3c-1.6,1.6-3.5,2.3-5.7,2.3c-0.7,0-2.4-0.4-5.3-1.3c-2.9-0.9-4.8-1.3-5.5-1.3c-1.7,0-3.2,0.7-4.5,2
			l-1.1-2.2c1.6-1.5,3.5-2.2,5.5-2.2c0.7,0,2.5,0.4,5.4,1.3c3.1,0.9,4.8,1.3,5.3,1.3c1.8,0,3.4-0.6,4.9-1.8L467,580.3L467,580.3z
			 M448.3,637.1v-39c5.6-4.9,8.5-7.5,8.5-7.7c0.3,0,0.5,0.2,0.6,0.6v46.1L448.3,637.1L448.3,637.1z"/>
	</g>
	<g>
		<path class="st1" d="M205.1,333l-88.9-0.1c-24.8,0-42.6-15.1-53.4-45.4c-0.8-4.1-1.1-7.9-1.1-11.6v-31.4
			c0-27.3,15.9-46.3,47.7-56.9h12.8c5.2,0,12.2,1.2,20.9,3.5V183c0.2-1.5,1-2.3,2.3-2.3h31.4c1.5,0.2,2.3,1,2.3,2.3l-0.1,93
			c0,5.2-1.2,12.2-3.5,20.9h29.6V333L205.1,333z M111.5,133.6c12.4,2.1,18.6,8.3,18.6,18.6c-2.1,12.6-8.3,18.9-18.6,18.9
			c-12.6-2.1-18.9-8.4-18.9-18.9C94.7,139.8,101,133.6,111.5,133.6z M98.8,257.4v5.8c0,20.9,6.5,31.4,19.7,31.4h3.5
			c13.2,0,19.8-11.2,19.8-33.7v-3.5c0-20.9-6.6-31.4-19.7-31.4h-3.5C105.5,226,98.9,236.5,98.8,257.4L98.8,257.4z M161.4,133.7
			c12.4,2.1,18.6,8.3,18.6,18.6c-2.1,12.6-8.3,18.9-18.6,18.9c-12.6-2.1-18.9-8.4-18.9-18.9C144.7,139.9,151,133.7,161.4,133.7z"/>
		<path class="st1" d="M199.3,297.3h13.9c14.7,0,22.1-8.1,22.1-24.4l0.1-49.7c0-1,12-10.6,36.1-29l1.2,2.3l-0.1,88
			c0,21.3-12.4,37.1-37.2,47.3c-1.4,0.8-3.3,1.2-5.8,1.2h-30.2L199.3,297.3z M222.2,355.1c12.4,2.1,18.6,8.3,18.6,18.6
			c-2.1,12.6-8.3,18.9-18.6,18.9c-12.6-2.1-18.9-8.4-18.9-18.9C205.4,361.3,211.7,355.1,222.2,355.1z M264,355.2
			c12.4,2.1,18.6,8.3,18.6,18.6c-2.1,12.6-8.3,18.9-18.6,18.9c-12.6-2.1-18.9-8.4-18.9-18.9C247.3,361.3,253.6,355.1,264,355.2z"/>
		<path class="st1" d="M385.9,192.6l1.2,2.3L387,312.3c0,29.8-16.7,52.7-50,68.5c-7.7,3.1-15.5,4.6-23.2,4.6H301
			c-1.5,0-2.3-0.8-2.3-2.3v-36H315c11.8,0,21.9-7.3,30.2-22.1c3.1-4.1,4.7-14.9,4.7-32.5l0.1-68.6
			C352.6,220.3,364.6,209.8,385.9,192.6L385.9,192.6z"/>
		<path class="st1" d="M557.2,333.4h-40.1c-6.2,18.2-18.2,32.5-36.1,43c-12.8,5.4-23.6,8.1-32.5,8.1h-12.8c-1.5,0-2.3-0.8-2.3-2.3
			v-36h16.3c6,0,14.1-3.9,24.4-11.6v-2.3H459c-24.8,0-42.6-15.1-53.4-45.4c-0.8-4.1-1.2-7.9-1.2-11.6v-26.7
			c0-26.3,14.8-44.9,44.2-55.7c5.2-0.8,9.5-1.2,12.8-1.1h5.8c24.8,0,42.6,15.2,53.4,45.4c0.8,4.1,1.2,7.9,1.1,11.6l-0.1,48.8H557
			L557.2,333.4L557.2,333.4z M441.6,261.2c0,22.7,7.7,34,23.2,34h19.8v-34c0-20.9-6.6-31.4-19.7-31.4h-3.5
			C448.2,229.9,441.6,240.3,441.6,261.2L441.6,261.2z"/>
		<path class="st1" d="M551.4,297.4h30.8l0.1-82.5c1.4-2.7,13.4-10,36-22l1.2,2.3l-0.1,102.3h30.2l0.1-82.5
			c16.1-11.2,28.5-18.2,37.2-20.9l-0.1,103.4h29l0.1-84.8c0.8-1.5,12.8-8.5,36-20.9l1.2,2.3l-0.1,98.8
			c-4.1,27.1-17.7,40.7-40.7,40.6l-160.9-0.2V297.4L551.4,297.4z"/>
	</g>
	<g>
		<path class="st1" d="M396.3,128.4h-4.7c0,3.5-2.5,6.8-7.4,9.8c-1.3,0.6-2.6,0.9-3.8,0.9h-6.7c-4.7,0-8.4-3.1-10.9-9.3
			c-0.3-1.1-0.5-2.1-0.5-2.9v-23.3h0.2c4.8,4.2,7.3,6.4,7.4,6.7v12.6c0,5.2,1.3,8,3.9,8.6l1.4,0.2h3.8c3-1,4.5-2.1,4.5-3.3h-7.1
			v-0.5c3-4.4,4.8-6.7,5.2-6.9h14.7V128.4L396.3,128.4z M372.8,140.6c2.5,0.4,3.8,1.7,3.8,3.8c-0.4,2.6-1.7,3.9-3.8,3.9
			c-2.6-0.4-3.9-1.7-3.9-3.9C369.4,141.9,370.7,140.6,372.8,140.6z M382.5,140.6c2.5,0.4,3.8,1.7,3.8,3.8c-0.4,2.6-1.7,3.9-3.8,3.9
			c-2.6-0.4-3.9-1.7-3.9-3.9C379.1,141.9,380.4,140.6,382.5,140.6z"/>
		<path class="st1" d="M395.1,121h6.9v-0.2c-0.5-1.5-0.7-2.8-0.7-4v-6.4c0-5.4,3-9.2,9-11.4c1.1-0.2,1.9-0.2,2.6-0.2h1.2
			c5.1,0,8.7,3.1,10.9,9.3c0.2,0.8,0.2,1.6,0.2,2.4v6.4c0,5.3-2.9,9-8.6,11.2c-0.6,0.3-1.5,0.5-2.6,0.5h-19L395.1,121L395.1,121z
			 M412,87.6c2.5,0.4,3.8,1.7,3.8,3.8c-0.4,2.6-1.7,3.9-3.8,3.9c-2.6-0.4-3.9-1.7-3.9-3.9C408.5,88.9,409.8,87.6,412,87.6z
			 M408.9,112.9v0.7c0,4.6,1.3,6.9,4,6.9h0.7c2.7,0,4-2.1,4-6.4v-1.2c0-4.3-1.3-6.4-4-6.4H413C410.3,106.5,408.9,108.6,408.9,112.9z
			"/>
		<path class="st1" d="M479.9,128.4h-4.7c0,3.5-2.5,6.8-7.4,9.8c-1.3,0.6-2.6,0.9-3.8,0.9h-6.7c-4.7,0-8.4-3.1-10.9-9.3
			c-0.3-1.1-0.5-2.1-0.5-2.9v-23.3h0.2c4.8,4.2,7.3,6.4,7.4,6.7v12.6c0,5.2,1.3,8,3.9,8.6l1.4,0.2h3.8c3-1,4.5-2.1,4.5-3.3H460v-0.5
			c3-4.4,4.8-6.7,5.2-6.9h14.7V128.4L479.9,128.4z M456.3,140.6c2.5,0.4,3.8,1.7,3.8,3.8c-0.4,2.6-1.7,3.9-3.8,3.9
			c-2.6-0.4-3.9-1.7-3.9-3.9C452.9,141.9,454.2,140.6,456.3,140.6z M466.1,140.6c2.5,0.4,3.8,1.7,3.8,3.8c-0.4,2.6-1.7,3.9-3.8,3.9
			c-2.6-0.4-3.9-1.7-3.9-3.9C462.6,141.9,463.9,140.6,466.1,140.6z"/>
		<path class="st1" d="M478.7,121h25.7v-6.2c-0.3-2.2-1.5-4.3-3.6-6.2c-1.5-0.9-3-1.4-4.5-1.4h-0.9c-2.4,0-4.5,1.1-6.4,3.3
			c-0.2,0-2.1-1.6-5.9-4.8v-0.2c3.6-4.1,7.6-6.2,11.9-6.2h1.2c7.6,0,12.8,4.2,15.7,12.6c0.3,2.3,0.5,4.1,0.5,5.2v10.7
			c0,0.3-0.2,0.5-0.5,0.5h-33.1V121H478.7z"/>
		<path class="st1" d="M530.6,121v7.4h-4.8c-3,0-5.8-2.3-8.3-6.9c-0.3-1.4-0.5-2.5-0.5-3.1V89.9c0-0.3,0.2-0.5,0.5-0.5
			c0,0.2,2.4,2.3,7.1,6.4v19.5c0,3.8,1.1,5.7,3.3,5.7H530.6L530.6,121z"/>
		<path class="st1" d="M529.4,121h2.3c3,0,4.5-1.7,4.5-5v-10.7c0.2-0.4,2.5-2.1,7.1-5.2h0.5v18.3c0,1.1-0.2,2-0.5,2.6h4.6v7.4h-18.6
			L529.4,121L529.4,121z M534.1,132.9c2.5,0.4,3.8,1.7,3.8,3.8c-0.4,2.6-1.7,3.9-3.8,3.9c-2.6-0.4-3.9-1.7-3.9-3.9
			C530.7,134.2,532,132.9,534.1,132.9z M543.3,132.9c2.5,0.4,3.8,1.7,3.8,3.8c-0.4,2.6-1.7,3.9-3.8,3.9c-2.6-0.4-3.9-1.7-3.9-3.9
			C539.8,134.2,541.1,132.9,543.3,132.9z"/>
		<path class="st1" d="M546.8,121h8.5v-17.1c0.1-0.2,2.5-1.6,7.4-4l0.2,0.5V121h6.2v-17.1c0.1-0.2,2.5-1.6,7.4-4l0.2,0.5V121h5.9
			v-17.1c0-0.4,2.5-1.7,7.4-4h0.2V121h8v7.4h-51.5L546.8,121L546.8,121z"/>
		<path class="st1" d="M597.1,121h2.7c2.2,0,3.3-1.9,3.3-5.7V95.8c4.7-4.1,7.1-6.3,7.1-6.4c0.3,0,0.4,0.2,0.5,0.5v28.5
			c0,0.6-0.2,1.7-0.5,3.1c-2.5,4.6-5.3,6.9-8.3,6.9h-4.8V121z"/>
		<path class="st1" d="M615.5,128.4V95.8c4.7-4.1,7.1-6.3,7.1-6.4c0.3,0,0.4,0.2,0.5,0.5v38.6h-7.6V128.4z"/>
		<path class="st1" d="M678.4,89.8v28.6c0,1.1-0.2,2-0.5,2.6h5.8v7.4H655c-4.7,0-8.4-3.1-10.9-9.3c-0.3-1.1-0.5-2.1-0.5-2.9v-12.6
			c0-0.3,0.2-0.5,0.5-0.5l7.1,5v4c0,5.2,1.3,8,4,8.3c0,0.3,0.4,0.5,1.2,0.5h10.9c2.2,0,3.3-1.9,3.3-5.7v-21L678.4,89.8L678.4,89.8z
			 M659.9,89.6h2.4c0.3,0,0.4,0.2,0.4,0.4v1.5c0,0.3-0.1,0.5-0.4,0.5h-2.8c-1.2,0-1.7,0.6-1.7,1.7v1.5c0,1.1,0.7,1.7,2.1,1.9h3.9
			c0.3,0,0.4,0.2,0.4,0.5v1.5c0,0.3-0.1,0.4-0.4,0.4h-9c-0.3,0-0.4-0.1-0.4-0.4v-1.5c0-0.3,0.2-0.5,0.4-0.5h1.1
			c-0.3-0.9-0.4-1.5-0.4-1.9v-1.5C655.4,91.2,656.9,89.9,659.9,89.6L659.9,89.6z"/>
		<path class="st1" d="M682.5,121h1.9c3,0,4.5-1.7,4.5-5V93.4c0.2-0.4,2.5-2.1,7.1-5.2h0.5v30.2c0,1.1-0.2,2-0.5,2.6h3.8v7.4h-17.4
			V121H682.5z"/>
		<path class="st1" d="M698.7,121h2.3c3,0,4.5-1.7,4.5-5v-10.7c0.2-0.4,2.5-2.1,7.1-5.2h0.5v18.3c0,1.1-0.2,2-0.5,2.6h4.6v7.4h-18.6
			L698.7,121L698.7,121z M703.4,132.9c2.5,0.4,3.8,1.7,3.8,3.8c-0.4,2.6-1.7,3.9-3.8,3.9c-2.6-0.4-3.9-1.7-3.9-3.9
			C700,134.2,701.3,132.9,703.4,132.9z M712.6,132.9c2.5,0.4,3.8,1.7,3.8,3.8c-0.4,2.6-1.7,3.9-3.8,3.9c-2.6-0.4-3.9-1.7-3.9-3.9
			C709.1,134.2,710.4,132.9,712.6,132.9z"/>
		<path class="st1" d="M716.1,121h2.7c2.2,0,3.3-1.9,3.3-5.7V95.8c4.7-4.1,7.1-6.3,7.1-6.4c0.3,0,0.4,0.2,0.5,0.5v28.5
			c0,0.6-0.2,1.7-0.5,3.1c-2.5,4.6-5.3,6.9-8.3,6.9h-4.8V121z"/>
		<path class="st1" d="M741.4,99.8h9.3c4.8,0,8.2,3,10.2,9c0,0.2,0.1,1,0.2,2.4c0,9.2-0.7,13.8-2.1,13.8c-1.5,2.2-3.6,3.3-6.4,3.3
			H735c-0.3,0-0.5-0.2-0.5-0.5v-6.4c0-0.3,0.2-0.5,0.5-0.5h18.3v-9c-0.2-3-1.3-4.5-3.3-4.5h-12.8
			C737.1,106.7,738.6,104.1,741.4,99.8L741.4,99.8z"/>
	</g>
</g>
</svg>
