<?xml version="1.0" encoding="UTF-8"?>
<svg id="Layer_2" data-name="Layer 2" xmlns="http://www.w3.org/2000/svg" viewBox="0 0 270.44 372.82">
  <defs>
    <style>
      .cls-1 {
        fill: #832411;
      }
    </style>
  </defs>
  <g id="Layer_1-2" data-name="Layer 1">
    <g>
      <path class="cls-1" d="M223.18,106.43c0,7.93-.24,15.87,.15,23.78,.12,2.51,1.3,5.64,3.09,7.3,59.81,55.66,58.73,149.16-3.55,202.15-38.87,33.08-84.11,41.58-132.26,24.75-47.95-16.76-77.99-51.42-87.75-101.32-9.59-49.03,5.16-91.22,41.36-125.84,1.58-1.51,2.73-4.26,2.77-6.45,.24-14.5,.04-29.01,.15-43.52C47.49,38.66,86.81-.09,135.62,0c48.26,.09,87.33,39.22,87.56,87.7,.03,6.24,0,12.48,0,18.72Zm17.93,130.49c-.38-59.21-48.13-105.97-107.85-105.62-56.85,.34-104.11,48.39-104.09,105.85,.02,58.75,48.14,106.35,107.1,105.92,57.73-.42,105.21-48.5,104.84-106.14Zm-47.14-121.46c0-8.08,.04-15.14,0-22.2-.15-25.09-16.43-47.25-40.6-55.28-23.61-7.85-49.85,.59-65.12,20.35-13.16,17.03-12.56,36.57-11.62,56.98,39.03-17.63,77.85-17.69,117.34,.16Z"/>
      <path class="cls-1" d="M118.35,259.46c0-1.52-.09-3.04,.01-4.55,.49-7-.77-12.6-6.16-18.41-11.11-11.96-8.59-30.92,4-41.45,12.11-10.12,30.49-8.76,41.05,3.04,10.89,12.17,10.14,30.79-1.99,41.79-2.54,2.3-3.43,4.56-3.37,7.81,.15,8.59,.2,17.18-.05,25.77-.22,7.44-3.94,12.86-10.96,15.48-6.83,2.54-13.38,1.16-17.85-4.47-2.53-3.19-3.78-7.75-4.51-11.89-.75-4.25-.17-8.73-.17-13.11Z"/>
    </g>
  </g>
</svg>