<?xml version="1.0" encoding="utf-8"?>
<!-- Generator: Adobe Illustrator 27.0.0, SVG Export Plug-In . SVG Version: 6.00 Build 0)  -->
<svg version="1.1" id="Layer_2_00000157286975381053224880000007448872072714063265_"
	 xmlns="http://www.w3.org/2000/svg" xmlns:xlink="http://www.w3.org/1999/xlink" x="0px" y="0px" viewBox="0 0 396 356"
	 style="enable-background:new 0 0 396 356;" xml:space="preserve">
<style type="text/css">
	.st0{fill:none;}
	.st1{fill:#F9BD43;}
</style>
<path class="st0" d="M270,227.9c-8.2,5.2-16.2,10.2-24.1,15.3c-29.6,18.7-59.2,37.5-88.7,56.3c-2.2,1.4-3.4,1.2-5.1-0.7
	c-10.3-11.5-20.5-23.2-31.4-34.3c-7-7.1-15.1-13.3-22.8-19.7c-9-7.4-18.2-14.7-27.3-22.1c-0.9-0.8-1.6-1.9-2.4-2.8
	c-1.2-1.3-2.2-2.9-3.6-4c-9.3-7.5-18.8-14.9-28.2-22.2c-1.7-1.3-2.1-2.2-0.8-4.1c2.5-3.5,4.7-7.2,7-10.9c0.8-1.3,1.7-1.7,3.3-1.5
	c11.2,1.2,22.4,2.2,33.6,3.3c1.3,0.1,2.7-0.2,3.9-0.7c12.2-4.5,24.3-8.9,36.5-13.5c1.9-0.7,3.4-0.6,5.1,0.4c6.4,3.4,13,6.6,19.4,10
	c2.1,1.1,3.3,0.8,4.8-1c3.8-4.9,8-9.5,11.7-14.5c1.3-1.8,1.7-4.2,2.3-6.4c0.7-2.8,1.3-5.6,1.6-8.5c0.3-2.7,1.7-2.6,3.7-2.2
	c13.1,2.4,26.1,5.2,39.4,7c7,0.9,11.1,4.3,15,9.9c15.1,21.9,30.8,43.6,46.2,65.3C269.2,226.5,269.5,227,270,227.9L270,227.9
	L270,227.9z"/>
<path class="st0" d="M272.6,226c-0.7-0.9-1.3-1.6-1.9-2.4c-15.6-22-31.3-44.1-46.9-66.2c-1.5-2.1-3.8-4.3-3.9-6.5
	c-0.1-2.1,2.3-4.3,3.6-6.4c5.7-9.2,11.6-18.2,16.9-27.6c1.8-3.2,2.2-7.3,2.8-11.1c2.3-14,4.5-28,6.8-42.7c0.9,0.8,1.6,1.3,2.2,1.9
	c19.7,18.9,39.5,37.8,59.1,56.8c3.1,3,6.4,4.3,10.4,4.8c3.6,0.4,7.1,1.2,10.7,1.6c1.7,0.2,2.3,0.9,2.3,2.6
	c-0.1,13.9-0.2,27.9-0.4,41.9c0,3.3-0.4,6.7-0.1,10c0.3,3.7-1.4,5.8-4.4,7.6c-10.1,6.2-20.1,12.6-30.2,19
	c-8.1,5.1-16.3,10.3-24.4,15.4C274.4,225,273.5,225.4,272.6,226L272.6,226L272.6,226z"/>
<path class="st0" d="M232.8,47.1c5.7-2.2,10.9-4.2,16.2-6.1c11.4-4.3,22.8-8.8,34.5-12.8c3.6-1.3,7.7-1.5,11.6-1.7
	c15.1-0.8,30.3-1.4,45.4-2.2c2.2-0.1,4.4-0.9,6.4-1.9c13.2-6.8,26.3-13.8,39.5-20.7c4.9-2.6,7.6-1.1,8.3,4.4c0.3,2.7,0.9,5.3,0.9,8
	c0,1.5-0.6,3.3-1.5,4.3c-8.8,9.7-17.6,19.2-26.6,28.7c-0.9,1-2.3,1.8-3.6,2.1c-6.1,1.3-12.2,2.3-18.3,3.5c-6.2,1.2-9.9,5.6-9.9,11.9
	c-0.2,18.8-0.4,37.7-0.6,56.5c0,4.2,0,4.1-4,3.5s-8-1.1-12-1.9c-1.6-0.3-3.2-1.2-4.4-2.3c-16.6-15.8-33.3-31.8-49.7-47.8
	c-9.1-8.9-18.3-17.5-29.5-23.7C234.4,48.5,233.7,47.9,232.8,47.1L232.8,47.1L232.8,47.1z"/>
<path class="st0" d="M187.4,47.6c3.2,2.4,6,4.6,8.8,6.8c3.8,3,7.9,3.6,12.4,1.8c6-2.3,12.1-4.7,18.2-6.8c1.1-0.4,2.7-0.3,3.7,0.3
	c5.1,3.2,10.2,6.5,15.1,9.9c0.7,0.5,1.4,1.8,1.2,2.6c-2.6,16.8-5.2,33.7-7.9,50.4c-0.2,1.1-0.8,2.2-1.4,3.2
	c-6.5,10.6-13.1,21.1-19.6,31.8c-1,1.7-2,2.1-3.9,1.7c-15.6-2.9-31.2-5.6-46.8-8.5c-2.9-0.6-5.8-1.9-8.6-3.1
	c-0.8-0.3-1.4-1.4-1.8-2.2c-2.7-5.5-5.3-11-7.8-16.6c-0.4-1-0.6-2.3-0.4-3.3c1.6-10.4,3.4-20.7,5-31.2c0.3-2.2,1.3-3.5,3.1-4.6
	c6.4-3.7,12.6-7.6,19-11.3c2.1-1.2,3.4-2.7,4.3-4.9C182.6,58.2,184.9,53.1,187.4,47.6L187.4,47.6L187.4,47.6z"/>
<path class="st0" d="M65.4,72.5c1.3-6.2,2.5-12.1,3.8-17.9c0.7-3.3,1.4-6.7,2.2-10c1.1-4.6,3.9-5.8,7.9-3.5c7,3.9,14,7.7,20.9,11.8
	c4.2,2.5,8.2,2.5,12.6,0.7c16.3-6.8,32.7-13.4,48.9-20.3c3.5-1.5,6.1-1.3,9.1,1.2c4,3.5,8.3,6.6,12.6,9.8c1.4,1.1,1.6,2,0.8,3.6
	c-2.2,4.6-4.1,9.4-6.4,14c-0.8,1.7-2.2,3.3-3.8,4.3c-6.6,4.2-13.4,8.1-20.1,12.1c-1.5,0.9-2.3,1.9-2.6,3.8
	c-1.8,11.4-3.8,22.7-5.6,34.1c-0.2,1.2,0.2,2.7,0.8,3.8c2.4,5.4,5,10.7,7.7,16.5c-6.1-1-11.8-1.9-17.4-2.9
	c-11.4-1.9-22.9-3.9-34.4-5.7c-2.3-0.4-3.9-1.2-5.3-3.1c-5.2-6.8-10.6-13.4-16-20c-2.1-2.5-3.3-5.2-3.4-8.5
	c-0.2-6.3-0.8-12.6-1-18.8c-0.1-2-0.8-2.9-2.8-3.2C71.2,73.7,68.6,73.1,65.4,72.5L65.4,72.5L65.4,72.5z"/>
<path class="st0" d="M151.1,302.6c-5.6,3.5-11.1,7-16.5,10.4c-7.8,4.9-15.6,9.7-23.3,14.7c-1.9,1.3-3,1.1-4.3-0.8
	c-3.8-5.3-7.7-10.4-11.7-15.5c-0.8-1.1-2.2-2.1-3.5-2.6c-12.2-4.6-24.2-9-36.3-13.4c-1.5-0.6-3.3-0.5-5-0.4
	c-8.4,0.4-16.9,1-25.3,1.4c-1,0.1-2.5-0.3-3-1c-4.3-6.1-8.4-12.3-12.8-18.7c11.2-8.5,21.9-16.7,32.7-25c7.6-5.8,15.3-11.4,22.6-17.5
	c2.3-1.9,3.7-4.9,5.6-7.7c0.3,0.2,1.1,0.7,1.8,1.3c13.6,11,27.2,21.8,40.5,32.9c4.4,3.7,8.1,8.2,12,12.4c8.5,9.3,17,18.6,25.5,27.9
	C150.6,301.5,150.9,302,151.1,302.6z"/>
<path class="st0" d="M43.2,115.8c2.6,1.1,5,1.9,7.2,3c0.6,0.3,1.1,1.6,1.1,2.4c0.1,3.7,0.2,7.4,0,11.1c-0.1,2.4,0.7,3.6,3.1,4.1
	c9.7,2.4,19.3,4.9,29,7.5c2.1,0.6,3.4,0,4.7-1.6c3-3.7,6.2-7.3,9.4-10.8c0.7-0.7,2.2-1.3,3.2-1.1c17.7,2.9,35.6,5.9,53.3,8.9
	c0.4,0.1,0.7,0.1,1.1,0.1c6.4,1.3,7.2,2.5,6,8.8c-0.2,1.1-0.4,2.1-0.6,3.2c-0.5,4.3-1.9,8.1-5,11.3c-2.7,2.9-5.1,6-7.5,9.2
	c-1.3,1.7-2.4,1.9-4.3,0.9c-6.3-3.3-12.7-6.4-18.9-9.8c-1.8-0.9-3.3-0.9-5.1-0.3c-12.3,4.6-24.6,9.2-37,13.7c-1.4,0.5-3,0.7-4.4,0.5
	c-10.3-0.9-20.6-2-31-2.9c-2.4-0.2-3.7-0.8-4-3.6c-0.7-5.8-2.3-11.5-2.8-17.3c-0.4-4.5,0.1-9.1,0.4-13.7c0.5-6.9,1.1-13.8,1.7-20.7
	C42.7,117.9,43,117,43.2,115.8L43.2,115.8L43.2,115.8z"/>
<path class="st0" d="M106.8,331.1c-6.8,4.3-13.2,8.4-19.6,12.5c-5.6,3.6-11.3,7-16.8,10.7c-2.3,1.5-4.4,1.6-6.7,0.2
	c-5.1-3.2-10.4-6.1-15.4-9.4c-1.1-0.7-2-2.3-2.2-3.6c-0.7-5-0.9-10-1.6-15c-0.4-2.7,0.2-4.7,2.5-6.2c0.8-0.5,1.3-1.3,2.1-1.7
	c6.1-3.4,7.7-8.6,6.7-15.1c-0.2-1.4,0-2.8,0-4.7c1.1,0.3,2,0.5,2.7,0.8c10.3,3.8,20.5,7.6,31,11.3c2.3,0.8,4,2.1,5.5,4.1
	C98.7,320.2,102.6,325.4,106.8,331.1L106.8,331.1L106.8,331.1z"/>
<path class="st0" d="M96.6,128.3c-3.5,4.1-6.8,8-10.3,11.8c-0.5,0.5-1.8,0.8-2.6,0.6c-9.1-2.3-18.1-4.7-27.1-6.9
	c-1.5-0.4-2-1.1-2-2.6c0.1-3.8,0-7.5,0-11.3c0-1.8-0.5-3-2.2-3.4c-7.6-1.8-12.3-6.8-15.5-13.6c-0.9-1.8-2.1-3.5-3.3-5.5
	c4.2-2.8,8.3-5.5,12.5-8.2c4.8-3.2,9.6-6.3,14.4-9.5c0.5-0.3,1.2-0.6,1.5-1.1c3.1-4.9,7.2-1.6,10.8-1.3c0.4,0,1,1.4,1.1,2.1
	c0.5,6.9,0.8,13.8,1.4,20.7c0.1,1.4,0.8,2.9,1.7,4.1C83.3,112,89.8,120,96.6,128.3z"/>
<path class="st0" d="M42.8,342c-5.2-3.1-10-5.8-14.6-8.7c-3.8-2.4-7.6-4.5-12.8-3.2c1.9-4.8,3.9-9,5.2-13.5c1.4-4.9,2.1-10,2.9-15
	c0.2-1.4,0.8-2,2.2-2c8.4-0.5,16.9-1,25.3-1.5c0.3,0,0.7,0,1.5,0.1c0,4.4,0.1,8.7-0.1,13c0,0.6-1,1.2-1.5,1.8
	c-2.8,2.4-5.7,4.7-8.4,7.2c-0.8,0.8-1.5,2.3-1.4,3.4C41.5,329.5,42.1,335.4,42.8,342L42.8,342L42.8,342z"/>
<path class="st0" d="M31,98.8c3,4.9,5.9,9.5,8.6,14.1c0.6,1,0.6,2.4,0.5,3.6c-0.8,10.3-1.7,20.6-2.6,31c-0.1,1.5-0.5,2.3-2.2,2.3
	c-4.9-0.1-9.9-0.1-14.8-0.1c-1.4,0-2.1-0.5-2.1-2.1c0-12.6,0-25.2,0.1-37.8c0-1.3,0.8-2.9,1.8-3.7C23.5,103.5,27.1,101.3,31,98.8
	L31,98.8z"/>
<path class="st1" d="M7.2,278.7c4.5,6.6,8.8,12.7,12.9,19c0.6,0.9,0.4,2.4,0.3,3.6c-0.5,10.4-4.6,19.7-8.5,29
	c-0.8,2-4.3,3.5-6.7,2.9c-2.5-0.6-3.3-2.6-3.4-4.9c-0.4-8.3-0.7-16.5-1.1-24.8c-0.2-4.9-0.2-9.7-0.7-14.5c-0.3-3.6,0.7-6.3,3.9-8.1
	C5.1,280.4,6,279.6,7.2,278.7C7.2,278.7,7.2,278.7,7.2,278.7z"/>
<path class="st0" d="M31.6,190c-4-3.2-7.8-5.9-11.3-9c-1.1-0.9-1.9-2.7-2-4.1c-0.2-7.3-0.1-14.5-0.1-21.8c0-1.8,0.7-2.4,2.4-2.3
	c4.9,0.1,9.7,0.2,14.5,0.1c1.8,0,2.4,0.8,2.6,2.3c1.1,6.2,2.2,12.4,3.2,18.6c0.1,0.6,0,1.5-0.3,2C37.7,180.4,34.7,185.1,31.6,190
	C31.6,190,31.6,190,31.6,190z"/>
</svg>
