<?xml version="1.0" encoding="UTF-8"?>
<svg id="Layer_2" data-name="Layer 2" xmlns="http://www.w3.org/2000/svg" viewBox="0 0 394.58 354.57">
  <defs>
    <style>
      .cls-1 {
        fill: #953a27;
      }
    </style>
  </defs>
  <g id="Layer_1-2" data-name="Layer 1">
    <g>
      <path class="cls-1" d="M269.38,227.16c-8.2,5.19-16.16,10.24-24.13,15.29-29.56,18.71-59.13,37.4-88.64,56.19-2.2,1.4-3.37,1.24-5.09-.68-10.33-11.51-20.49-23.22-31.34-34.23-7.04-7.14-15.07-13.3-22.82-19.72-9-7.45-18.19-14.69-27.26-22.06-.94-.76-1.58-1.89-2.39-2.82-1.17-1.34-2.21-2.86-3.59-3.96-9.35-7.46-18.75-14.87-28.2-22.2-1.66-1.29-2.11-2.25-.78-4.12,2.49-3.52,4.74-7.22,7.01-10.88,.81-1.31,1.72-1.7,3.32-1.53,11.17,1.18,22.36,2.25,33.55,3.26,1.28,.11,2.68-.24,3.91-.69,12.16-4.46,24.3-8.94,36.41-13.53,1.87-.71,3.36-.55,5.08,.36,6.44,3.39,12.99,6.6,19.41,10.03,2.08,1.12,3.33,.8,4.76-1.03,3.83-4.88,8.01-9.5,11.69-14.48,1.3-1.76,1.74-4.23,2.3-6.45,.7-2.78,1.34-5.62,1.61-8.47,.26-2.7,1.66-2.61,3.66-2.24,13.08,2.42,26.11,5.23,39.28,6.97,7.04,.93,11.13,4.29,15,9.89,15.12,21.91,30.69,43.5,46.09,65.22,.36,.51,.66,1.06,1.17,1.89Z"/>
      <path class="cls-1" d="M271.93,225.28c-.69-.87-1.32-1.61-1.88-2.4-15.61-22.02-31.21-44.04-46.79-66.08-1.49-2.1-3.84-4.28-3.92-6.49-.07-2.11,2.29-4.31,3.61-6.45,5.66-9.19,11.59-18.23,16.85-27.64,1.8-3.22,2.16-7.33,2.78-11.1,2.31-14,4.46-28.03,6.76-42.59,.92,.78,1.58,1.28,2.17,1.85,19.68,18.87,39.42,37.68,58.95,56.7,3.08,3,6.4,4.3,10.43,4.75,3.57,.4,7.1,1.16,10.67,1.57,1.73,.2,2.3,.94,2.28,2.59-.15,13.95-.25,27.9-.39,41.85-.03,3.33-.42,6.68-.14,9.98,.31,3.72-1.44,5.78-4.36,7.59-10.09,6.25-20.1,12.65-30.14,18.99-8.14,5.14-16.27,10.29-24.41,15.42-.75,.47-1.53,.89-2.47,1.44Z"/>
      <path class="cls-1" d="M232.11,46.69c5.66-2.15,10.92-4.15,16.19-6.13,11.44-4.31,22.81-8.8,34.36-12.81,3.64-1.27,7.73-1.52,11.63-1.73,15.09-.82,30.19-1.37,45.28-2.19,2.16-.12,4.43-.87,6.37-1.88,13.18-6.82,26.28-13.79,39.4-20.71,4.89-2.58,7.65-1.12,8.29,4.37,.32,2.68,.93,5.34,.94,8.02,0,1.46-.56,3.27-1.53,4.33-8.76,9.66-17.64,19.22-26.57,28.73-.92,.98-2.31,1.81-3.62,2.08-6.06,1.28-12.18,2.33-18.27,3.48-6.19,1.17-9.87,5.56-9.94,11.91-.21,18.81-.41,37.61-.61,56.42-.04,4.16-.03,4.14-3.98,3.52-3.99-.62-8.03-1.05-11.98-1.87-1.56-.33-3.21-1.22-4.37-2.32-16.6-15.83-33.22-31.66-49.63-47.68-9.1-8.88-18.34-17.5-29.53-23.74-.75-.42-1.4-1.02-2.45-1.8Z"/>
      <path class="cls-1" d="M186.92,47.17c3.17,2.42,6.03,4.56,8.84,6.77,3.8,3,7.89,3.57,12.41,1.8,6.03-2.35,12.08-4.65,18.18-6.79,1.08-.38,2.73-.3,3.68,.28,5.14,3.15,10.17,6.48,15.14,9.88,.7,.48,1.35,1.77,1.23,2.56-2.55,16.79-5.19,33.56-7.88,50.33-.18,1.11-.76,2.2-1.36,3.18-6.51,10.57-13.1,21.09-19.56,31.69-1.01,1.66-2.02,2.07-3.93,1.72-15.55-2.87-31.14-5.55-46.69-8.49-2.95-.56-5.78-1.89-8.57-3.08-.78-.33-1.39-1.35-1.8-2.19-2.66-5.5-5.29-11.02-7.82-16.59-.45-.99-.61-2.27-.44-3.35,1.64-10.38,3.45-20.74,5.04-31.14,.34-2.2,1.27-3.51,3.13-4.59,6.37-3.71,12.63-7.62,19.02-11.3,2.07-1.19,3.38-2.73,4.3-4.91,2.2-5.19,4.59-10.29,7.07-15.78Z"/>
      <path class="cls-1" d="M65.15,72.06c1.3-6.18,2.52-12.06,3.76-17.93,.71-3.34,1.4-6.68,2.18-10.01,1.08-4.61,3.87-5.81,7.95-3.5,6.97,3.93,14.02,7.73,20.9,11.81,4.19,2.49,8.23,2.51,12.6,.68,16.25-6.81,32.57-13.43,48.78-20.34,3.52-1.5,6.15-1.28,9.05,1.24,4.01,3.46,8.3,6.6,12.56,9.77,1.42,1.06,1.58,1.95,.81,3.56-2.22,4.61-4.08,9.4-6.36,13.98-.82,1.65-2.21,3.29-3.76,4.26-6.62,4.17-13.37,8.12-20.12,12.08-1.51,.89-2.26,1.95-2.55,3.77-1.78,11.36-3.76,22.68-5.55,34.04-.19,1.21,.23,2.66,.76,3.82,2.42,5.39,4.97,10.72,7.69,16.54-6.14-1.02-11.78-1.94-17.42-2.88-11.43-1.91-22.85-3.87-34.29-5.7-2.26-.36-3.91-1.2-5.35-3.07-5.24-6.75-10.57-13.43-16.04-19.99-2.11-2.53-3.26-5.16-3.36-8.49-.19-6.29-.75-12.57-1.01-18.85-.08-1.98-.82-2.9-2.8-3.18-2.66-.37-5.28-1.01-8.41-1.63Z"/>
      <path class="cls-1" d="M149.73,300.23c-8.49-9.3-16.97-18.62-25.51-27.87-3.89-4.23-7.58-8.74-11.97-12.4-13.32-11.13-26.94-21.91-40.45-32.81-.73-.6-1.52-1.13-1.76-1.3-1.94,2.75-3.27,5.78-5.55,7.67-7.35,6.06-15.05,11.71-22.61,17.51-10.77,8.27-21.54,16.53-32.61,25.03,4.36,6.41,8.51,12.61,12.83,18.68,.51,.72,2.03,1.08,3.05,1.03,8.45-.41,16.88-.99,25.32-1.43,1.67-.09,3.5-.18,5.02,.37,12.09,4.36,24.14,8.83,36.15,13.38,1.34,.5,2.65,1.52,3.54,2.65,4.01,5.09,7.93,10.24,11.72,15.49,1.34,1.86,2.41,2.08,4.35,.82,7.7-4.98,15.5-9.81,23.26-14.71,5.45-3.44,10.9-6.9,16.49-10.44-.54-.7-.86-1.22-1.27-1.67Zm-83.65-14.76c-6.59-2.76-13.18-5.52-19.77-8.28,.5-1.97,.99-3.95,1.48-5.92,7.59,.4,15.18,.8,22.77,1.21-1.49,4.33-2.99,8.66-4.48,12.99Z"/>
      <path class="cls-1" d="M42.9,115.29c2.62,1.07,5,1.89,7.21,3.03,.64,.33,1.11,1.56,1.14,2.4,.12,3.69,.16,7.38,.02,11.07-.09,2.36,.69,3.55,3.11,4.14,9.68,2.39,19.33,4.92,28.95,7.52,2.06,.56,3.36,0,4.66-1.57,3.04-3.67,6.15-7.29,9.4-10.78,.69-.74,2.17-1.29,3.16-1.13,17.74,2.88,35.46,5.88,53.18,8.85,.35,.06,.72,.08,1.07,.15,6.41,1.3,7.25,2.53,6.02,8.83-.21,1.06-.45,2.12-.57,3.18-.5,4.3-1.95,8.07-5.04,11.29-2.73,2.85-5.14,6.02-7.54,9.16-1.27,1.66-2.4,1.93-4.29,.93-6.27-3.33-12.68-6.41-18.94-9.75-1.79-.95-3.27-.94-5.09-.26-12.28,4.62-24.59,9.18-36.92,13.67-1.37,.5-2.98,.66-4.43,.53-10.3-.92-20.58-2-30.88-2.91-2.38-.21-3.65-.84-3.99-3.55-.74-5.79-2.28-11.49-2.81-17.28-.41-4.52,.11-9.14,.41-13.71,.46-6.91,1.08-13.8,1.66-20.7,.08-.95,.31-1.88,.53-3.13Z"/>
      <path class="cls-1" d="M106.39,330.21c-6.76,4.31-13.18,8.4-19.61,12.49-5.61,3.56-11.28,7.04-16.84,10.68-2.31,1.51-4.38,1.61-6.74,.16-5.12-3.16-10.38-6.1-15.44-9.36-1.07-.69-1.98-2.29-2.16-3.58-.7-4.97-.92-10.02-1.62-14.99-.38-2.72,.15-4.71,2.53-6.17,.76-.46,1.3-1.28,2.07-1.71,6.06-3.36,7.72-8.61,6.74-15.12-.21-1.39-.03-2.84-.03-4.68,1.11,.31,1.95,.49,2.74,.78,10.28,3.78,20.55,7.61,30.85,11.32,2.3,.83,4.03,2.11,5.46,4.08,3.85,5.29,7.83,10.49,12.04,16.1Z"/>
      <path class="cls-1" d="M96.09,127.81c-3.54,4.08-6.85,7.99-10.3,11.76-.5,.54-1.79,.78-2.57,.58-9.06-2.26-18.08-4.66-27.13-6.93-1.54-.39-1.99-1.14-1.96-2.64,.08-3.77-.05-7.55,.05-11.33,.05-1.78-.45-3.03-2.24-3.44-7.62-1.76-12.27-6.82-15.5-13.6-.88-1.84-2.11-3.52-3.32-5.51,4.25-2.81,8.34-5.54,12.45-8.25,4.8-3.17,9.6-6.33,14.4-9.51,.52-.35,1.21-.61,1.51-1.1,3.06-4.89,7.16-1.64,10.84-1.32,.43,.04,1.02,1.36,1.08,2.13,.51,6.9,.85,13.81,1.43,20.71,.12,1.4,.82,2.93,1.7,4.05,6.4,8.11,12.91,16.14,19.56,24.4Z"/>
      <path class="cls-1" d="M42.51,341.1c-5.23-3.1-9.97-5.81-14.6-8.69-3.8-2.35-7.59-4.51-12.78-3.19,1.88-4.81,3.93-9.03,5.18-13.47,1.37-4.89,2.09-9.98,2.93-15,.24-1.44,.76-1.96,2.2-2.04,8.43-.47,16.86-1.02,25.29-1.53,.35-.02,.71,.05,1.48,.11,0,4.36,.06,8.71-.07,13.05-.02,.6-.95,1.24-1.55,1.75-2.79,2.4-5.71,4.67-8.37,7.21-.83,.79-1.47,2.3-1.4,3.43,.4,5.9,1.05,11.78,1.68,18.38Z"/>
      <path class="cls-1" d="M30.64,98.31c3.03,4.93,5.92,9.47,8.59,14.13,.56,.98,.57,2.42,.47,3.62-.82,10.29-1.74,20.57-2.56,30.87-.12,1.53-.52,2.3-2.21,2.27-4.94-.11-9.88-.14-14.82-.15-1.44,0-2.11-.52-2.1-2.06,.02-12.58-.05-25.16,.07-37.74,.01-1.26,.8-2.94,1.78-3.69,3.36-2.53,6.97-4.73,10.78-7.25Z"/>
      <path class="cls-1" d="M7.05,277.91c4.49,6.56,8.81,12.74,12.93,19.05,.59,.9,.4,2.41,.34,3.63-.47,10.35-4.57,19.67-8.45,29.03-.82,1.98-4.35,3.47-6.69,2.87-2.5-.64-3.27-2.59-3.37-4.91-.38-8.26-.74-16.51-1.09-24.77-.21-4.85-.22-9.71-.66-14.54-.33-3.64,.69-6.3,3.92-8.1,1-.55,1.85-1.36,3.07-2.26Z"/>
      <path class="cls-1" d="M31.33,189.42c-4-3.17-7.76-5.95-11.26-9.03-1.07-.94-1.93-2.71-1.97-4.12-.2-7.27-.06-14.54-.13-21.82-.02-1.79,.68-2.36,2.39-2.33,4.85,.1,9.7,.18,14.54,.1,1.76-.03,2.39,.78,2.64,2.28,1.06,6.18,2.15,12.36,3.17,18.56,.11,.65,.03,1.5-.31,2.04-2.93,4.71-5.93,9.37-9.09,14.32Z"/>
      <rect class="cls-1" x="43.91" y="256.81" width="36" height="29"/>
    </g>
  </g>
</svg>