<?xml version="1.0" encoding="UTF-8"?>
<svg id="Layer_2" data-name="Layer 2" xmlns="http://www.w3.org/2000/svg" viewBox="0 0 176.57 158.79">
  <defs>
    <style>
      .cls-1 {
        fill: #fff;
      }
    </style>
  </defs>
  <g id="Layer_1-2" data-name="Layer 1">
    <g>
      <path class="cls-1" d="M0,158.79V0H176.57V158.79H0Zm120.11-57.12c-.14-.29-.2-.44-.29-.57-7.63-10.75-15.26-21.5-22.9-32.23-.23-.32-.66-.6-1.04-.67-7.06-1.31-14.14-2.57-21.2-3.88-.75-.14-1.09,0-1.22,.8-.27,1.69-.58,3.39-.98,5.05-.17,.71-.49,1.44-.94,2.01-1.65,2.11-3.41,4.13-5.06,6.24-.64,.81-1.19,.96-2.12,.46-2.85-1.53-5.76-2.95-8.62-4.46-.77-.4-1.43-.47-2.26-.16-5.38,2.03-10.77,4.03-16.17,6.01-.55,.2-1.17,.35-1.74,.3-4.97-.45-9.94-.92-14.9-1.45-.71-.08-1.11,.11-1.47,.68-1.01,1.63-2.01,3.27-3.12,4.83-.59,.83-.39,1.26,.35,1.83,4.2,3.26,8.38,6.54,12.53,9.86,.61,.49,1.07,1.16,1.59,1.76,.36,.41,.64,.91,1.06,1.25,4.03,3.28,8.1,6.51,12.11,9.8,3.21,2.63,6.59,5.1,9.49,8.05,5.01,5.1,9.72,10.5,14.49,15.82,.83,.93,1.39,1.01,2.45,.33,13.51-8.61,27.05-17.16,40.59-25.72,3.1-1.96,6.2-3.93,9.37-5.94Zm-8.73-73.1c-.15,.29-.2,.35-.22,.43-.98,6.19-1.92,12.39-2.94,18.57-.28,1.67-.47,3.49-1.28,4.91-2.76,4.81-5.77,9.49-8.72,14.19-.45,.72-.41,1.2,.08,1.89,6.79,9.54,13.55,19.1,20.31,28.65,.85,1.2,1.71,2.39,2.59,3.63,.43-.24,.75-.4,1.05-.59,4.39-2.77,8.78-5.54,13.17-8.33,3.98-2.52,7.98-5.03,11.91-7.62,.54-.36,1.09-1.18,1.1-1.8,.16-7.99,.22-15.99,.33-23.98,0-.72-.22-1.06-1-1.16-2.14-.27-4.27-.58-6.39-.99-.7-.14-1.47-.47-1.98-.95-7.21-6.86-14.38-13.76-21.56-20.65-2.13-2.04-4.25-4.08-6.45-6.19Zm-7.84-7.05c.74,.5,1.29,.87,1.85,1.24,2.99,1.98,6.01,3.89,8.61,6.43,8.52,8.32,17.14,16.53,25.76,24.75,.54,.52,1.3,.95,2.03,1.11,1.71,.37,3.46,.56,5.2,.82q1.86,.28,1.88-1.68c.09-8.31,.18-16.63,.27-24.94,.03-2.77,1.62-4.72,4.31-5.25,2.58-.52,5.19-.93,7.75-1.52,.83-.19,1.73-.65,2.32-1.26,3.13-3.25,6.22-6.55,9.23-9.92,3.69-4.13,3.34-2.28,2.6-7.94-.34-2.6-1.49-3.2-3.82-1.97-5.79,3.06-11.58,6.13-17.39,9.15-.86,.45-1.87,.77-2.83,.82-6.82,.37-13.65,.62-20.48,.98-1.58,.08-3.22,.21-4.69,.73-5.16,1.81-10.26,3.8-15.37,5.73-2.34,.88-4.67,1.77-7.22,2.74Zm-20.03,.19c-1.18,2.61-2.22,5.03-3.36,7.39-.29,.6-.8,1.2-1.37,1.55-2.98,1.86-6.04,3.6-9.01,5.47-.49,.31-.95,.99-1.06,1.56-.84,4.72-1.6,9.44-2.35,14.18-.07,.44,.01,.97,.2,1.37,1.14,2.51,2.33,5,3.53,7.48,.18,.37,.48,.79,.83,.94,1.29,.52,2.58,1.1,3.93,1.36,6.83,1.29,13.67,2.46,20.5,3.74,.92,.17,1.36-.07,1.82-.83,2.85-4.67,5.76-9.31,8.62-13.97,.3-.5,.56-1.07,.65-1.64,1.18-7.33,2.33-14.66,3.44-22,.06-.42-.23-1.09-.58-1.33-2.13-1.48-4.34-2.85-6.49-4.31-.64-.44-1.19-.45-1.89-.18-2.68,1.04-5.38,2.02-8.06,3.06-1.96,.76-3.75,.49-5.4-.81-1.25-.98-2.53-1.94-3.96-3.03Zm-14.69,39.39c-1.23-2.62-2.36-4.99-3.43-7.38-.23-.52-.4-1.16-.31-1.7,.79-5.04,1.67-10.07,2.46-15.12,.13-.82,.49-1.27,1.16-1.66,3.03-1.78,6.05-3.58,9.05-5.4,.43-.26,.93-.58,1.13-1,1.24-2.63,2.4-5.29,3.63-8.02-2.47-1.91-4.87-3.84-7.36-5.63-.48-.34-1.41-.4-2-.2-1.88,.65-3.71,1.47-5.55,2.24-5.75,2.39-11.51,4.76-17.25,7.17-1.91,.8-3.67,.71-5.48-.36-3.06-1.81-6.19-3.5-9.28-5.25-1.77-1-3.02-.49-3.48,1.47-.47,2.02-.89,4.05-1.32,6.08-.45,2.1-.88,4.2-1.34,6.41,1.35,.27,2.54,.56,3.76,.74,.9,.13,1.18,.57,1.22,1.43,.16,3.19,.36,6.38,.62,9.56,.05,.59,.33,1.23,.7,1.7,2.59,3.3,5.25,6.54,7.84,9.84,.56,.72,1.2,1.09,2.07,1.22,2.29,.35,4.57,.74,6.85,1.12,5.35,.89,10.69,1.79,16.33,2.73ZM4.61,123.37c1.83,2.7,3.59,5.26,5.31,7.86,.47,.72,1.01,1,1.88,.93,3.79-.27,7.57-.49,11.36-.69,.66-.04,1.38-.03,1.99,.19,3.98,1.42,7.89,3.1,11.93,4.32,3.66,1.1,6.48,3,8.42,6.32,.9,1.53,2.14,2.86,3.3,4.38,6.31-3.97,12.5-7.87,18.77-11.81-.25-.33-.4-.56-.58-.76-3.72-4.07-7.42-8.16-11.16-12.21-1.84-1.99-3.6-4.1-5.67-5.83-5.82-4.87-11.78-9.58-17.69-14.35-.35-.29-.73-.55-.85-.63-.91,1.25-1.54,2.63-2.59,3.48-4.29,3.46-8.71,6.75-13.09,10.11-3.74,2.87-7.47,5.74-11.32,8.7ZM19.55,51.98c-.11,.63-.22,1.06-.26,1.48-.25,3.02-.52,6.04-.72,9.07-.13,2.03-.37,4.08-.19,6.09,.23,2.57,.93,5.1,1.25,7.67,.16,1.28,.8,1.51,1.87,1.6,4.53,.4,9.06,.88,13.59,1.29,.65,.06,1.36,0,1.97-.22,5.55-2.02,11.08-4.1,16.63-6.1,.56-.2,1.36-.16,1.89,.1,2.88,1.38,5.72,2.83,8.54,4.34,.89,.48,1.41,.34,2-.44,1.04-1.37,2.09-2.74,3.27-3.97,1.36-1.43,2.03-3.1,2.26-5,.06-.51,.17-1.02,.27-1.53,.53-2.74,.18-3.25-2.62-3.84-.19-.04-.4-.05-.59-.09-7.87-1.32-15.73-2.66-23.61-3.94-.43-.07-1.07,.21-1.39,.55-1.47,1.58-2.87,3.22-4.26,4.87-.49,.58-1,.83-1.77,.62-4.43-1.18-8.87-2.34-13.31-3.48-.81-.21-1.12-.63-1.1-1.43,.03-1.72,.04-3.44-.02-5.15-.01-.41-.24-1-.55-1.16-.94-.5-1.96-.84-3.16-1.32Zm5.49,81.08c0,1.84-.03,3.51,.02,5.17,.02,.8-.24,1.34-.86,1.84-1.13,.89-2.16,1.9-3.31,2.76-.82,.61-1.01,1.3-.89,2.26,.28,2.34,.43,4.69,.74,7.02,.07,.54,.47,1.2,.93,1.49,2.29,1.46,4.65,2.79,6.96,4.21,1.02,.62,1.9,.54,2.89-.09,4.97-3.18,9.97-6.33,14.96-9.49,.39-.25,.77-.52,1.24-.84-1.85-2.47-3.57-4.86-5.42-7.16-.59-.73-1.45-1.38-2.32-1.72-4.54-1.75-9.12-3.4-13.69-5.07-.36-.13-.73-.22-1.25-.37ZM43.16,57.53c-2.94-3.66-5.85-7.26-8.72-10.89-.37-.47-.67-1.11-.72-1.69-.26-3.06-.41-6.13-.63-9.2-.03-.35-.21-.92-.44-.98-1.11-.3-2.26-.59-3.4-.6-.47,0-.93,.73-1.41,1.12-.22,.18-.44,.34-.68,.49-2.13,1.41-4.27,2.81-6.4,4.22-1.85,1.22-3.69,2.45-5.56,3.69,2.22,3.57,3.67,7.64,8.39,8.52,.74,.14,.96,.69,.94,1.44-.04,1.72-.06,3.44,.03,5.15,.02,.37,.43,.96,.77,1.05,4.04,1.1,8.09,2.14,12.16,3.16,.32,.08,.85,0,1.05-.23,1.55-1.71,3.05-3.47,4.61-5.26Zm-19.45,75.3c-.33-.05-.45-.1-.56-.09-3.82,.23-7.65,.45-11.47,.73-.3,.02-.75,.52-.82,.86-.45,2.14-.67,4.34-1.26,6.43-.58,2.05-1.52,4-2.39,6.22,2.3-.6,3.98,.36,5.67,1.41,1.79,1.12,3.63,2.17,5.45,3.25,.28,.17,.6,.29,1.03,.5-.26-2.73-.45-5.27-.76-7.79-.11-.93,.19-1.5,.88-2.05,1.22-.97,2.4-1.98,3.57-3,.28-.25,.64-.61,.65-.93,.06-1.82,.03-3.65,.03-5.53ZM14.1,44.44c-1.56,1.03-3.09,1.9-4.45,2.99-.57,.46-1.11,1.35-1.13,2.05-.09,5.47-.03,10.94-.05,16.41,0,.86,.33,1.1,1.13,1.09,2.03-.02,4.07-.03,6.1,.05,.93,.04,1.22-.24,1.29-1.19,.33-4.45,.75-8.9,1.11-13.35,.04-.54,.12-1.2-.12-1.63-1.22-2.14-2.55-4.22-3.89-6.42ZM3.61,124.21c-.54,.4-.95,.78-1.42,1.05-1.41,.78-1.8,1.96-1.67,3.51,.18,2.15,.2,4.3,.29,6.46,.16,3.67,.32,7.33,.48,11,.05,1.08,.39,1.98,1.59,2.23,1.02,.21,2.56-.42,2.86-1.26,1.24-3.48,2.99-6.75,3.49-10.52,.32-2.42,.27-4.45-1.39-6.42-1.55-1.84-2.79-3.96-4.23-6.04Zm10.79-39.31c1.41-2.21,2.73-4.25,4.01-6.32,.15-.24,.22-.61,.17-.9-.46-2.8-.96-5.59-1.44-8.38-.11-.64-.42-.94-1.13-.93-2.16,.03-4.32,0-6.48-.04-.75-.02-1.08,.22-1.07,1.03,.03,3.24-.02,6.48,.05,9.71,.01,.57,.3,1.31,.71,1.67,1.62,1.41,3.34,2.71,5.16,4.16Z"/>
      <path d="M120.11,101.67c-3.17,2.01-6.27,3.98-9.37,5.94-13.53,8.57-27.08,17.12-40.59,25.72-1.06,.68-1.61,.6-2.45-.33-4.77-5.33-9.48-10.72-14.49-15.82-2.89-2.95-6.28-5.42-9.49-8.05-4.02-3.29-8.08-6.52-12.11-9.8-.42-.34-.7-.84-1.06-1.25-.52-.6-.98-1.27-1.59-1.76-4.15-3.31-8.33-6.6-12.53-9.86-.74-.57-.94-1-.35-1.83,1.1-1.56,2.1-3.21,3.12-4.83,.36-.58,.76-.76,1.47-.68,4.96,.53,9.93,1,14.9,1.45,.57,.05,1.19-.1,1.74-.3,5.4-1.98,10.8-3.97,16.17-6.01,.83-.31,1.49-.25,2.26,.16,2.86,1.51,5.77,2.93,8.62,4.46,.93,.5,1.48,.35,2.12-.46,1.65-2.11,3.41-4.13,5.06-6.24,.45-.57,.77-1.3,.94-2.01,.4-1.67,.71-3.36,.98-5.05,.13-.81,.47-.94,1.22-.8,7.06,1.3,14.14,2.57,21.2,3.88,.38,.07,.82,.35,1.04,.67,7.65,10.73,15.28,21.48,22.9,32.23,.09,.13,.14,.28,.29,.57Z"/>
      <path d="M111.38,28.57c2.2,2.11,4.33,4.15,6.45,6.19,7.18,6.89,14.35,13.79,21.56,20.65,.51,.48,1.28,.82,1.98,.95,2.12,.41,4.25,.72,6.39,.99,.78,.1,1.01,.44,1,1.16-.1,7.99-.16,15.99-.33,23.98-.01,.62-.56,1.44-1.1,1.8-3.93,2.59-7.93,5.1-11.91,7.62-4.39,2.78-8.78,5.55-13.17,8.33-.3,.19-.62,.35-1.05,.59-.88-1.24-1.74-2.43-2.59-3.63-6.77-9.55-13.52-19.11-20.31-28.65-.49-.69-.53-1.17-.08-1.89,2.95-4.7,5.96-9.38,8.72-14.19,.81-1.42,1-3.24,1.28-4.91,1.03-6.18,1.97-12.38,2.94-18.57,.01-.07,.07-.14,.22-.43Z"/>
      <path d="M103.54,21.52c2.55-.97,4.88-1.86,7.22-2.74,5.12-1.93,10.21-3.92,15.37-5.73,1.47-.52,3.12-.65,4.69-.73,6.82-.36,13.65-.61,20.48-.98,.96-.05,1.97-.37,2.83-.82,5.82-3.01,11.6-6.09,17.39-9.15,2.33-1.23,3.48-.63,3.82,1.97,.74,5.66,1.09,3.81-2.6,7.94-3.01,3.37-6.1,6.66-9.23,9.92-.59,.61-1.49,1.06-2.32,1.26-2.56,.59-5.17,1.01-7.75,1.52-2.69,.54-4.28,2.48-4.31,5.25-.1,8.31-.18,16.63-.27,24.94q-.02,1.96-1.88,1.68c-1.74-.26-3.49-.44-5.2-.82-.73-.16-1.49-.59-2.03-1.11-8.61-8.22-17.24-16.43-25.76-24.75-2.61-2.55-5.62-4.45-8.61-6.43-.55-.37-1.11-.74-1.85-1.24Z"/>
      <path d="M83.51,21.71c1.43,1.09,2.7,2.05,3.96,3.03,1.65,1.29,3.44,1.56,5.4,.81,2.68-1.03,5.39-2.01,8.06-3.06,.7-.27,1.25-.26,1.89,.18,2.15,1.46,4.36,2.83,6.49,4.31,.35,.24,.64,.91,.58,1.33-1.11,7.34-2.26,14.67-3.44,22-.09,.57-.35,1.15-.65,1.64-2.86,4.66-5.77,9.3-8.62,13.97-.46,.76-.91,1-1.82,.83-6.83-1.27-13.68-2.45-20.5-3.74-1.35-.26-2.65-.84-3.93-1.36-.35-.14-.65-.57-.83-.94-1.2-2.48-2.39-4.97-3.53-7.48-.19-.41-.27-.93-.2-1.37,.75-4.73,1.51-9.46,2.35-14.18,.1-.57,.56-1.25,1.06-1.56,2.98-1.87,6.03-3.61,9.01-5.47,.57-.35,1.08-.95,1.37-1.55,1.14-2.37,2.18-4.78,3.36-7.39Z"/>
      <path d="M68.82,61.1c-5.64-.94-10.99-1.84-16.33-2.73-2.28-.38-4.56-.77-6.85-1.12-.88-.13-1.51-.5-2.07-1.22-2.59-3.3-5.25-6.54-7.84-9.84-.37-.47-.65-1.11-.7-1.7-.26-3.18-.46-6.37-.62-9.56-.04-.86-.32-1.31-1.22-1.43-1.21-.17-2.41-.47-3.76-.74,.46-2.21,.9-4.31,1.34-6.41,.43-2.03,.85-4.06,1.32-6.08,.46-1.96,1.71-2.47,3.48-1.47,3.09,1.75,6.22,3.44,9.28,5.25,1.81,1.07,3.58,1.16,5.48,.36,5.74-2.41,11.5-4.79,17.25-7.17,1.84-.76,3.67-1.59,5.55-2.24,.59-.2,1.52-.15,2,.2,2.49,1.79,4.89,3.72,7.36,5.63-1.22,2.73-2.39,5.39-3.63,8.02-.2,.42-.7,.74-1.13,1-3.01,1.82-6.02,3.62-9.05,5.4-.66,.39-1.03,.84-1.16,1.66-.78,5.04-1.66,10.08-2.46,15.12-.08,.54,.08,1.18,.31,1.7,1.07,2.4,2.21,4.77,3.43,7.38Z"/>
      <path d="M4.61,123.37c3.86-2.96,7.59-5.83,11.32-8.7,4.37-3.36,8.8-6.65,13.09-10.11,1.05-.85,1.68-2.22,2.59-3.48,.12,.09,.5,.35,.85,.63,5.91,4.77,11.87,9.47,17.69,14.35,2.07,1.73,3.83,3.84,5.67,5.83,3.74,4.05,7.45,8.13,11.16,12.21,.18,.2,.33,.43,.58,.76-6.26,3.94-12.46,7.84-18.77,11.81-1.16-1.52-2.41-2.85-3.3-4.38-1.94-3.32-4.76-5.21-8.42-6.32-4.04-1.22-7.95-2.9-11.93-4.32-.61-.22-1.33-.22-1.99-.19-3.79,.2-7.58,.43-11.36,.69-.86,.06-1.4-.22-1.88-.93-1.71-2.6-3.48-5.16-5.31-7.86Z"/>
      <path d="M19.55,51.98c1.2,.48,2.22,.82,3.16,1.32,.31,.17,.53,.76,.55,1.16,.06,1.72,.04,3.43,.02,5.15-.01,.8,.3,1.22,1.1,1.43,4.44,1.13,8.88,2.3,13.31,3.48,.77,.21,1.28-.05,1.77-.62,1.39-1.65,2.79-3.29,4.26-4.87,.31-.34,.96-.62,1.39-.55,7.88,1.28,15.74,2.62,23.61,3.94,.2,.03,.4,.05,.59,.09,2.81,.59,3.15,1.1,2.62,3.84-.1,.51-.21,1.02-.27,1.53-.23,1.91-.9,3.58-2.26,5-1.18,1.24-2.24,2.61-3.27,3.97-.59,.78-1.11,.92-2,.44-2.81-1.51-5.66-2.96-8.54-4.34-.53-.26-1.33-.3-1.89-.1-5.56,2-11.08,4.08-16.63,6.1-.61,.22-1.32,.28-1.97,.22-4.53-.41-9.06-.88-13.59-1.29-1.07-.1-1.71-.33-1.87-1.6-.32-2.57-1.01-5.1-1.25-7.67-.18-2.01,.06-4.06,.19-6.09,.2-3.03,.47-6.05,.72-9.07,.04-.43,.15-.85,.26-1.48Z"/>
      <path d="M25.05,133.06c.52,.15,.89,.24,1.25,.37,4.57,1.68,9.15,3.32,13.69,5.07,.87,.34,1.73,.99,2.32,1.72,1.85,2.29,3.57,4.69,5.42,7.16-.48,.32-.85,.59-1.24,.84-4.99,3.16-9.98,6.31-14.96,9.49-.98,.63-1.87,.72-2.89,.09-2.31-1.42-4.68-2.75-6.96-4.21-.45-.29-.85-.95-.93-1.49-.31-2.33-.46-4.68-.74-7.02-.11-.96,.08-1.66,.89-2.26,1.15-.86,2.18-1.87,3.31-2.76,.62-.49,.88-1.04,.86-1.84-.05-1.67-.02-3.34-.02-5.17Z"/>
      <path d="M43.16,57.53c-1.56,1.79-3.06,3.55-4.61,5.26-.2,.22-.73,.31-1.05,.23-4.06-1.02-8.12-2.05-12.16-3.16-.34-.09-.75-.68-.77-1.05-.08-1.71-.07-3.43-.03-5.15,.02-.75-.2-1.3-.94-1.44-4.72-.88-6.18-4.95-8.39-8.52,1.87-1.24,3.72-2.47,5.56-3.69,2.13-1.41,4.27-2.81,6.4-4.22,.23-.15,.46-.32,.68-.49,.47-.39,.94-1.12,1.41-1.12,1.14,0,2.28,.3,3.4,.6,.22,.06,.41,.63,.44,.98,.23,3.06,.38,6.13,.63,9.2,.05,.58,.35,1.22,.72,1.69,2.86,3.63,5.77,7.22,8.72,10.89Z"/>
      <path d="M23.71,132.84c0,1.88,.03,3.71-.03,5.53-.01,.32-.37,.68-.65,.93-1.17,1.02-2.35,2.04-3.57,3-.68,.54-.99,1.12-.88,2.05,.31,2.53,.5,5.07,.76,7.79-.44-.21-.75-.33-1.03-.5-1.82-1.07-3.66-2.13-5.45-3.25-1.68-1.05-3.37-2-5.67-1.41,.87-2.22,1.81-4.17,2.39-6.22,.59-2.09,.81-4.29,1.26-6.43,.07-.34,.52-.83,.82-.86,3.82-.29,7.64-.5,11.47-.73,.12,0,.23,.04,.56,.09Z"/>
      <path d="M14.1,44.44c1.35,2.2,2.67,4.28,3.89,6.42,.24,.43,.17,1.09,.12,1.63-.36,4.45-.78,8.9-1.11,13.35-.07,.94-.36,1.22-1.29,1.19-2.03-.08-4.07-.07-6.1-.05-.8,0-1.13-.23-1.13-1.09,.02-5.47-.04-10.94,.05-16.41,.01-.7,.55-1.59,1.13-2.05,1.36-1.08,2.88-1.96,4.45-2.99Z"/>
      <path d="M3.61,124.21c1.44,2.09,2.67,4.2,4.23,6.04,1.67,1.97,1.71,4,1.39,6.42-.5,3.77-2.25,7.04-3.49,10.52-.3,.84-1.84,1.48-2.86,1.26-1.2-.25-1.54-1.15-1.59-2.23-.17-3.67-.33-7.33-.48-11-.09-2.15-.11-4.31-.29-6.46-.13-1.55,.26-2.73,1.67-3.51,.47-.26,.88-.64,1.42-1.05Z"/>
      <path d="M14.4,84.89c-1.82-1.45-3.54-2.74-5.16-4.16-.42-.36-.7-1.1-.71-1.67-.07-3.24-.02-6.48-.05-9.71,0-.8,.32-1.04,1.07-1.03,2.16,.04,4.32,.07,6.48,.04,.71,0,1.02,.29,1.13,.93,.48,2.79,.98,5.58,1.44,8.38,.05,.29-.02,.66-.17,.9-1.29,2.07-2.61,4.11-4.01,6.32Z"/>
    </g>
  </g>
</svg>